<?xml version="1.0" encoding="UTF-8"?>
<svg version="1.1" xmlns="http://www.w3.org/2000/svg" width="428" height="428">
<path d="M0 0 C1.51787109 0.35408936 1.51787109 0.35408936 3.06640625 0.71533203 C58.37383735 14.00247975 106.86935197 48.49981077 136.75 97 C149.35659676 117.93444233 158.54172455 140.1600586 164 164 C164.31759277 165.35182373 164.31759277 165.35182373 164.64160156 166.73095703 C170.99220132 194.98659702 170.70428773 227.85450493 164 256 C163.76394043 257.01191406 163.52788086 258.02382813 163.28466797 259.06640625 C149.99752025 314.37383735 115.50018923 362.86935197 67 392.75 C46.06555767 405.35659676 23.8399414 414.54172455 0 420 C-0.90121582 420.21172852 -1.80243164 420.42345703 -2.73095703 420.64160156 C-30.98659702 426.99220132 -63.85450493 426.70428773 -92 420 C-93.01191406 419.76394043 -94.02382812 419.52788086 -95.06640625 419.28466797 C-150.37383735 405.99752025 -198.86935197 371.50018923 -228.75 323 C-241.35659676 302.06555767 -250.54172455 279.8399414 -256 256 C-256.21172852 255.09878418 -256.42345703 254.19756836 -256.64160156 253.26904297 C-262.99220132 225.01340298 -262.70428773 192.14549507 -256 164 C-255.76394043 162.98808594 -255.52788086 161.97617188 -255.28466797 160.93359375 C-241.99752025 105.62616265 -207.50018923 57.13064803 -159 27.25 C-138.06555767 14.64340324 -115.8399414 5.45827545 -92 0 C-90.64817627 -0.31759277 -90.64817627 -0.31759277 -89.26904297 -0.64160156 C-61.01340298 -6.99220132 -28.14549507 -6.70428773 0 0 Z " fill="#07051C" transform="translate(260,4)"/>
<path d="M0 0 C0 0.66 0 1.32 0 2 C-0.66 2 -1.32 2 -2 2 C-2.33 3.65 -2.66 5.3 -3 7 C-3.99 7.33 -4.98 7.66 -6 8 C-7.02450239 10.18137797 -7.02450239 10.18137797 -8 13 C-8.60919306 14.27848589 -9.23568978 15.5488051 -9.875 16.8125 C-10.22304687 17.50730469 -10.57109375 18.20210937 -10.9296875 18.91796875 C-11.60084642 20.22354431 -12.29088826 21.51976546 -13.0078125 22.80078125 C-18.66979884 33.21081125 -21.62449323 45.17486012 -20 57 C-18.0359446 61.62756073 -15.79346023 64.6807223 -12 68 C0.29924854 72.09974951 13.93396947 66.38163479 25 61 C27.92347536 59.43201911 30.77811037 57.76489829 33.625 56.0625 C34.3365625 55.64548828 35.048125 55.22847656 35.78125 54.79882812 C40.36575753 52.0825494 44.70340434 49.15196454 49 46 C47.989375 45.690625 46.97875 45.38125 45.9375 45.0625 C45.36902344 44.88847656 44.80054688 44.71445313 44.21484375 44.53515625 C37.43029142 42.89585525 30.74660302 42.84172804 23.8125 42.875 C22.27819336 42.88116333 22.27819336 42.88116333 20.71289062 42.88745117 C6.43281265 42.82859284 6.43281265 42.82859284 -7 47 C-8.32 47 -9.64 47 -11 47 C-11.81574192 35.78354855 -5.78164362 27.26941007 0 18 C0.46277344 17.24847656 0.92554688 16.49695313 1.40234375 15.72265625 C5.13209162 11.70109436 12.01376635 12.14994762 17.17822266 11.890625 C28.60067107 11.50432364 41.04830954 11.34943651 52 15 C52 15.66 52 16.32 52 17 C53.00675781 17.11085938 54.01351562 17.22171875 55.05078125 17.3359375 C60.25080737 18.07674162 64.92562638 20.13009399 69.79296875 22.0390625 C73.52538644 23.21368998 73.52538644 23.21368998 77 22 C78.84207451 19.9728769 80.40899962 17.8284318 82.0234375 15.6171875 C84 14 84 14 86.890625 14.0859375 C110.51815175 21.03171798 133.13915061 47.11560264 145.140625 67.5859375 C146.68239201 70.41682903 147.94363901 73.11230936 149.0625 76.125 C150.03767886 78.74500843 150.99208106 80.987553 152.49609375 83.3515625 C154.32814492 86.57787599 155.11134701 89.6509554 156 93.25 C157.0480373 97.42155019 158.12056287 101.52787314 159.625 105.5625 C168.21845579 131.29590858 163.43650036 161.27506666 154 186 C153.34 186 152.68 186 152 186 C151.61328125 185.28714844 151.2265625 184.57429687 150.828125 183.83984375 C147.35584095 177.44492108 147.35584095 177.44492108 143.75 171.125 C142 168 142 168 141.23046875 165.71875 C139.57545495 162.06195761 137.19162952 159.3777607 134.5625 156.375 C134.07201172 155.80265625 133.58152344 155.2303125 133.07617188 154.640625 C131.16768799 152.42565045 129.26271578 150.25216272 127.15234375 148.2265625 C126 147 126 147 126 145 C124.00491933 144.31875294 122.00361307 143.65572791 120 143 C118.906875 142.62875 117.81375 142.2575 116.6875 141.875 C108.99164089 140.00114783 108.99164089 140.00114783 101.71875 142.390625 C97.98234462 145.50429615 95.28408688 148.213858 94 153 C93.48879935 154.37861026 92.96716153 155.7533765 92.4375 157.125 C88.20237096 168.40404833 88.86416595 180.34774455 88.9375 192.25 C88.94253077 193.68880051 88.94709086 195.12760274 88.95117188 196.56640625 C88.96203936 200.04430751 88.97921472 203.52214217 89 207 C93.02904723 203.89338592 95.98772754 200.66511453 98.875 196.5 C99.30772217 195.8797998 99.74044434 195.25959961 100.1862793 194.62060547 C101.47236752 192.75664734 102.73997367 190.88165288 104 189 C104.66902344 188.00226563 105.33804688 187.00453125 106.02734375 185.9765625 C110.97491406 178.07344143 113.53054328 169.90669221 116 161 C116.37769119 159.6728307 116.75654047 158.34599025 117.13671875 157.01953125 C117.42160156 156.02308594 117.70648438 155.02664062 118 154 C124.82169185 157.06005871 130.36432449 163.53815486 134 170 C134.87762326 172.33575774 135.45135951 174.55605599 136 177 C136.66 177 137.32 177 138 177 C139.58493084 180.16986168 139.2940042 183.54032261 139 187 C138 189.5 138 189.5 137 191 C136.34 191 135.68 191 135 191 C134.01 194.96 134.01 194.96 133 199 C132.34 199 131.68 199 131 199 C130.731875 199.73089844 130.46375 200.46179688 130.1875 201.21484375 C129.02585603 203.9393574 127.6875054 206.13671098 126 208.5625 C123.85402272 211.64534089 123.85402272 211.64534089 122.125 214.96484375 C120.54250609 217.82761919 118.35732597 219.74019536 116 222 C115.05206047 222.97536336 114.10815005 223.95465609 113.16796875 224.9375 C107.80871629 230.46767878 102.84829042 235.312459 96 239 C96.61726196 244.67355671 97.27945952 250.33861055 98 256 C83.48005308 265.133515 69.62679735 270.94577707 53 275 C52.26910156 275.18079102 51.53820312 275.36158203 50.78515625 275.54785156 C14.01521594 284.28853208 -23.61167665 274.25472972 -55.24560547 255.12353516 C-59.84248801 252.17963682 -63.91689616 248.60418339 -68 245 C-68.88816406 244.23300781 -69.77632812 243.46601563 -70.69140625 242.67578125 C-75.55090845 238.41013774 -80.03294797 234.1154092 -84 229 C-84 228.34 -84 227.68 -84 227 C-82.69349487 226.97812622 -82.69349487 226.97812622 -81.3605957 226.95581055 C-78.06315882 226.89398224 -74.76645277 226.81970112 -71.46948242 226.73754883 C-70.05487268 226.7047254 -68.6401453 226.67656804 -67.2253418 226.65356445 C-53.15300306 226.4187757 -34.75965844 225.38272236 -24.25 214.75 C-21.2383712 210.67544338 -21.27282414 206.87380962 -22 202 C-24.67081568 188.86848958 -35.00350966 181.41249422 -45.54418945 174.41308594 C-49.25187159 172.00616655 -53.00042936 169.90133435 -57 168 C-57 167.34 -57 166.68 -57 166 C-59.64 165.34 -62.28 164.68 -65 164 C-65 163.34 -65 162.68 -65 162 C-66.98 161.67 -68.96 161.34 -71 161 C-66.38517157 177.14030446 -59.10208249 190.40465496 -48 203 C-47.05891878 204.16377983 -46.12072035 205.32990721 -45.1875 206.5 C-43.25138127 208.71270712 -41.43707636 210.37528243 -39 212 C-39.33 212.99 -39.66 213.98 -40 215 C-45.77927806 215.65713619 -51.55883954 216.25407615 -57.35302734 216.76416016 C-59.01060462 216.9118469 -60.66740471 217.06888705 -62.32275391 217.23974609 C-66.67015477 217.66642991 -70.71443852 217.92585869 -75 217 C-77.31884918 214.94689694 -78.49928311 213.14583759 -79.82421875 210.359375 C-80.89017853 207.8927655 -80.89017853 207.8927655 -82.98828125 206.07421875 C-85.41169574 203.57551371 -86.28716704 201.31174505 -87.5 198.0625 C-88.7284595 194.779691 -89.73097328 192.31956795 -91.99609375 189.62890625 C-94.59322599 186.22175226 -95.49464585 182.97966192 -96.5625 178.875 C-96.77156982 178.1010791 -96.98063965 177.3271582 -97.19604492 176.52978516 C-99.46140235 167.79910288 -100.78261785 158.92746907 -102 150 C-106.95 148.68 -111.9 147.36 -117 146 C-117.52977697 121.70874471 -117.52977697 121.70874471 -115.6875 111 C-115.56979248 110.31502441 -115.45208496 109.63004883 -115.33081055 108.92431641 C-113.70154572 100.44129836 -110.4698262 92.44616667 -107.3125 84.4375 C-106.99216797 83.61958984 -106.67183594 82.80167969 -106.34179688 81.95898438 C-105.56321746 79.97186378 -104.78190155 77.98581573 -104 76 C-103.34 76 -102.68 76 -102 76 C-101.84144531 75.44094971 -101.68289062 74.88189941 -101.51953125 74.3059082 C-99.77608704 68.59095107 -97.45858178 64.03915556 -94 59.1875 C-93.52014648 58.50244385 -93.04029297 57.8173877 -92.54589844 57.11157227 C-87.86865257 50.57180748 -82.60966979 44.74239069 -77 39 C-76.40960938 38.35933594 -75.81921875 37.71867187 -75.2109375 37.05859375 C-58.05214307 18.8432233 -25.78608674 -1.31611407 0 0 Z " fill="#F69D31" transform="translate(193,91)"/>
<path d="M0 0 C0 0.66 0 1.32 0 2 C1.918125 2.3403125 1.918125 2.3403125 3.875 2.6875 C16.58286697 5.63683361 26.62848554 13.6936347 34.27734375 24.09765625 C40.15098806 33.72149207 42.51642199 42.78052216 42.375 54 C42.38660156 54.92039063 42.39820313 55.84078125 42.41015625 56.7890625 C42.38262622 63.30450306 41.18804522 68.87280883 39 75 C38.34 75 37.68 75 37 75 C36.74605469 75.8765625 36.49210937 76.753125 36.23046875 77.65625 C31.17898635 91.38345298 19.47857639 99.24833719 6.83203125 105.21679688 C2.64225186 107.0079499 -1.48267189 107.69293087 -6 108 C-6.83273438 108.06832031 -7.66546875 108.13664062 -8.5234375 108.20703125 C-21.86018756 108.74771031 -34.41350668 106.37197176 -45 98 C-45.83402344 97.37222656 -46.66804688 96.74445313 -47.52734375 96.09765625 C-50.1424142 93.87918416 -52.18427939 91.56032544 -54.3125 88.875 C-55.00988281 88.00617188 -55.70726562 87.13734375 -56.42578125 86.2421875 C-58 84 -58 84 -58 82 C-58.66 82 -59.32 82 -60 82 C-67.84258541 65.0777547 -68.07107217 49.31120826 -62.19140625 31.55859375 C-57.66274784 19.98535559 -47.86527814 10.19311317 -36.8125 4.6875 C-24.81037724 -0.04188287 -12.67980532 -0.41903885 0 0 Z " fill="#09051C" transform="translate(228,175)"/>
<path d="M0 0 C10.99720342 2.34696415 21.44471688 6.18349778 32 10 C31.01 10.495 31.01 10.495 30 11 C34.61482843 27.14030446 41.89791751 40.40465496 53 53 C53.94108122 54.16377983 54.87927965 55.32990721 55.8125 56.5 C57.74861873 58.71270712 59.56292364 60.37528243 62 62 C61.67 62.99 61.34 63.98 61 65 C55.22072194 65.65713619 49.44116046 66.25407615 43.64697266 66.76416016 C41.98939538 66.9118469 40.33259529 67.06888705 38.67724609 67.23974609 C34.32984523 67.66642991 30.28556148 67.92585869 26 67 C23.68115082 64.94689694 22.50071689 63.14583759 21.17578125 60.359375 C20.10982147 57.8927655 20.10982147 57.8927655 18.01171875 56.07421875 C15.58830426 53.57551371 14.71283296 51.31174505 13.5 48.0625 C12.27323784 44.7842268 11.28046024 42.33050315 9.0078125 39.65234375 C6.35186065 36.14380035 5.46002398 32.71929097 4.375 28.5 C4.16335205 27.70625977 3.9517041 26.91251953 3.73364258 26.09472656 C1.49857134 17.47410978 -0.1453529 8.9325966 0 0 Z " fill="#DDDDDE" transform="translate(92,241)"/>
<path d="M0 0 C4.95 0 9.9 0 15 0 C15.33 4.62 15.66 9.24 16 14 C16.61875 12.5975 17.2375 11.195 17.875 9.75 C19.18272645 6.78582005 20.5493369 3.90132619 22 1 C27.28 1 32.56 1 38 1 C35.73694678 8.35309202 32.67711239 14.83605688 29.05273438 21.6015625 C26.0759647 27.0133403 26.0759647 27.0133403 26 33 C27.12745662 35.61260887 28.29557821 38.0584562 29.625 40.5625 C29.98529297 41.26270264 30.34558594 41.96290527 30.71679688 42.68432617 C31.8027694 44.79404403 32.90046424 46.89732613 34 49 C35.17590078 51.26636779 36.34039286 53.5376726 37.5 55.8125 C38.22703125 57.21435547 38.22703125 57.21435547 38.96875 58.64453125 C40 61 40 61 40 64 C34.72 64 29.44 64 24 64 C18.91071429 53.95535714 18.91071429 53.95535714 17 49 C16.67 49 16.34 49 16 49 C15.67 54.28 15.34 59.56 15 65 C10.05 65 5.1 65 0 65 C0 43.55 0 22.1 0 0 Z " fill="#F09E2F" transform="translate(197,195)"/>
<path d="M0 0 C6.82169185 3.06005871 12.36432449 9.53815486 16 16 C16.87762326 18.33575774 17.45135951 20.55605599 18 23 C18.66 23 19.32 23 20 23 C21.58493084 26.16986168 21.2940042 29.54032261 21 33 C20 35.5 20 35.5 19 37 C18.34 37 17.68 37 17 37 C16.34 39.64 15.68 42.28 15 45 C14.34 45 13.68 45 13 45 C12.7421875 45.71800781 12.484375 46.43601562 12.21875 47.17578125 C10.93289213 50.15550958 9.38382183 52.54935121 7.5 55.1875 C6.8915625 56.04730469 6.283125 56.90710938 5.65625 57.79296875 C4 60 4 60 2 62 C-0.99280964 61.82697913 -2.51654552 61.47021586 -4.68505859 59.36108398 C-6.27213467 57.06731687 -7.84307834 54.76860489 -9.375 52.4375 C-10.21224609 51.25704102 -10.21224609 51.25704102 -11.06640625 50.05273438 C-13.57458624 46.29665742 -15.46971536 43.37272944 -15.0546875 38.75390625 C-14.02579147 35.09179853 -12.86866677 32.63194218 -10.75 29.5 C-6.34113992 22.37520969 -4.2195501 15.00534361 -2 7 C-1.62230881 5.6728307 -1.24345953 4.34599025 -0.86328125 3.01953125 C-0.57839844 2.02308594 -0.29351562 1.02664062 0 0 Z " fill="#F4F4F4" transform="translate(311,245)"/>
<path d="M0 0 C1.22396484 -0.01224609 2.44792969 -0.02449219 3.70898438 -0.03710938 C4.89427734 -0.03904297 6.07957031 -0.04097656 7.30078125 -0.04296875 C8.38141846 -0.04707764 9.46205566 -0.05118652 10.57543945 -0.05541992 C13.89018621 0.2033212 16.58824556 1.01302425 19.6875 2.1875 C18.29849253 6.12774569 16.44874508 9.10864024 13.9375 12.4375 C10.76054725 16.70039297 7.77003107 21.0244205 4.9140625 25.5078125 C3.34883909 27.65127131 2.23936855 28.09533512 -0.35620117 28.52880859 C-1.59333862 28.6808374 -1.59333862 28.6808374 -2.85546875 28.8359375 C-3.76490234 28.95453125 -4.67433594 29.073125 -5.61132812 29.1953125 C-7.51691863 29.43753766 -9.42316942 29.674631 -11.33007812 29.90625 C-16.87861787 30.64032845 -21.23489462 31.87773796 -26.3125 34.1875 C-27.6325 34.1875 -28.9525 34.1875 -30.3125 34.1875 C-31.17585228 22.31640614 -23.93084351 10.01831197 -16.3125 1.1875 C-11.06878529 -0.5604049 -5.4879902 0.0028628 0 0 Z " fill="#F6F6F6" transform="translate(212.3125,103.8125)"/>
<path d="M0 0 C26.46185148 -0.51271617 26.46185148 -0.51271617 37 3 C37 3.66 37 4.32 37 5 C37.98097656 5.10183594 38.96195313 5.20367187 39.97265625 5.30859375 C44.37793483 5.93791926 48.31451638 7.43669402 52.4375 9.0625 C53.16904297 9.34416016 53.90058594 9.62582031 54.65429688 9.91601562 C56.43873546 10.60413247 58.21973905 11.30114606 60 12 C56.32937148 16.49651993 52.58696431 20.49665219 48.12890625 24.21875 C46.66183842 25.44624162 45.23337825 26.72087398 43.83984375 28.03125 C38.40517241 32.86206897 38.40517241 32.86206897 34.453125 33.25 C31.8990972 33.0023367 29.50505908 32.55157264 27 32 C22.12727182 31.19265984 17.47208922 30.88185855 12.53515625 30.90234375 C11.85698349 30.9037587 11.17881073 30.90517365 10.48008728 30.90663147 C8.34084422 30.91217255 6.20171075 30.92471347 4.0625 30.9375 C2.60091298 30.94252264 1.13932431 30.9470842 -0.32226562 30.95117188 C-3.88154526 30.96212255 -7.44076191 30.97934555 -11 31 C-11 30.67 -11 30.34 -11 30 C-4.73 29.34 1.54 28.68 8 28 C8.66 26.35 9.32 24.7 10 23 C11.20040437 21.21561513 12.45483706 19.4668439 13.75 17.75 C17.33202247 12.93257197 20.72226686 8.02834061 24 3 C18.87716234 2.01356362 13.82251071 1.69032947 8.625 1.4375 C7.37783203 1.37272461 7.37783203 1.37272461 6.10546875 1.30664062 C4.07046772 1.20138195 2.03525297 1.10026928 0 1 C0 0.67 0 0.34 0 0 Z " fill="#7E7D7E" transform="translate(208,103)"/>
<path d="M0 0 C1.88654385 4.63775363 3.21225675 7.95005809 3 13 C2.39414062 13.23074219 1.78828125 13.46148437 1.1640625 13.69921875 C-5.0813172 16.1301127 -11.0532747 18.91276389 -17 22 C-15.9378125 21.855625 -14.875625 21.71125 -13.78125 21.5625 C-12.3542021 21.37473054 -10.92711671 21.18724581 -9.5 21 C-8.80390625 20.90460938 -8.1078125 20.80921875 -7.390625 20.7109375 C-2.55299871 20.0838378 2.12181196 19.91210472 7 20 C7.50559908 21.43554025 8.0042749 22.8735202 8.5 24.3125 C8.7784375 25.11300781 9.056875 25.91351563 9.34375 26.73828125 C10 29 10 29 10 32 C9.01 32 8.02 32 7 32 C7 32.66 7 33.32 7 34 C4.08444885 34.67189656 1.16773049 35.33769308 -1.75 36 C-2.575 36.19078125 -3.4 36.3815625 -4.25 36.578125 C-5.04921875 36.75859375 -5.8484375 36.9390625 -6.671875 37.125 C-7.77160645 37.37636719 -7.77160645 37.37636719 -8.89355469 37.6328125 C-11 38 -11 38 -15 38 C-15 38.66 -15 39.32 -15 40 C-19.455 40.495 -19.455 40.495 -24 41 C-24.33 38.69 -24.66 36.38 -25 34 C-20.35855331 32.23945126 -15.72224516 30.53472968 -11 29 C-16.46137814 28.90247539 -21.59255982 29.22750855 -27 30 C-27.66 27.36 -28.32 24.72 -29 22 C-24.14775287 17.73590404 -19.56304288 15 -13 15 C-13 14.34 -13 13.68 -13 13 C-19.01077136 14.63040815 -25.01663928 16.27147357 -31 18 C-32.25664978 15.09399739 -33 13.20395416 -33 10 C-25.96617536 6.84475597 -19.13240137 4.32739439 -11.59375 2.67578125 C-1.09105347 -0.06061408 -1.09105347 -0.06061408 0 0 Z " fill="#E6972E" transform="translate(413,142)"/>
<path d="M0 0 C4.24504159 3.89128812 8.02899751 8.27289921 11.89453125 12.5390625 C14.84764771 15.78333129 17.87515388 18.9204415 21 22 C20.505 23.485 20.505 23.485 20 25 C14.22072194 25.65713619 8.44116046 26.25407615 2.64697266 26.76416016 C0.98939538 26.9118469 -0.66740471 27.06888705 -2.32275391 27.23974609 C-6.67015477 27.66642991 -10.71443852 27.92585869 -15 27 C-17.94435956 24.39307166 -19.33795328 21.51213522 -21 18 C-22.29779632 16.63205253 -23.6164076 15.28110407 -25 14 C-26.20272819 11.59454362 -26.10071472 10.05003047 -26.0625 7.375 C-26.05347656 6.55773437 -26.04445313 5.74046875 -26.03515625 4.8984375 C-26.02355469 4.27195312 -26.01195313 3.64546875 -26 3 C-7.18032445 -2.03442526 -7.18032445 -2.03442526 0 0 Z " fill="#F6F6F7" transform="translate(133,281)"/>
<path d="M0 0 C0.33 0 0.66 0 1 0 C1 12.87 1 25.74 1 39 C5.06598542 35.74721166 7.84731575 32.87461569 10.8125 28.75 C11.21919922 28.19570313 11.62589844 27.64140625 12.04492188 27.0703125 C13.03591711 25.71789547 14.01881466 24.35955093 15 23 C16 25 16 25 16.21484375 27.6015625 C17.30100656 32.30286422 19.76146394 35.50740215 22.5625 39.375 C23.08263672 40.11105469 23.60277344 40.84710938 24.13867188 41.60546875 C25.41637875 43.41066928 26.70349908 45.20827458 28 47 C30.97 46.505 30.97 46.505 34 46 C32.74275451 49.77173648 30.86231351 51.24962054 28 54 C27.06327772 54.97492896 26.13106993 55.954213 25.203125 56.9375 C19.63171099 62.74838378 14.5109662 67.73766115 7 71 C6.69255859 69.71802734 6.69255859 69.71802734 6.37890625 68.41015625 C6.10949219 67.30542969 5.84007812 66.20070313 5.5625 65.0625 C5.29566406 63.96035156 5.02882813 62.85820312 4.75390625 61.72265625 C4.27004275 59.10578746 4.27004275 59.10578746 3 58 C2.84417697 56.65984779 2.74955858 55.31241097 2.68359375 53.96484375 C2.62075195 52.75151367 2.62075195 52.75151367 2.55664062 51.51367188 C2.51732422 50.66353516 2.47800781 49.81339844 2.4375 48.9375 C2.39431641 48.08349609 2.35113281 47.22949219 2.30664062 46.34960938 C2.20023298 44.23327963 2.09958269 42.11666187 2 40 C1.34 40 0.68 40 0 40 C-0.9976177 32.55745527 -1.1504073 25.25362259 -1.125 17.75 C-1.12886719 16.59242188 -1.13273437 15.43484375 -1.13671875 14.2421875 C-1.13542969 13.12585938 -1.13414062 12.00953125 -1.1328125 10.859375 C-1.13168457 9.85358398 -1.13055664 8.84779297 -1.12939453 7.81152344 C-1.00485809 5.10555795 -0.60734159 2.63563333 0 0 Z " fill="#C4C3C5" transform="translate(281,259)"/>
<path d="M0 0 C3.69293736 0.6594531 4.70572579 1.52929434 8 4 C7.34 7.63 6.68 11.26 6 15 C7.11375 13.2675 7.11375 13.2675 8.25 11.5 C9.515625 9.53125 9.515625 9.53125 11 8 C12.32 8 13.64 8 15 8 C15 8.66 15 9.32 15 10 C15.99 10.33 16.98 10.66 18 11 C16.20018757 16.53706999 12.6678496 20.66061904 9.1640625 25.20898438 C6.21172705 29.12002658 3.94735405 32.88632449 2.06787109 37.42260742 C1 39 1 39 -0.94287109 39.80981445 C-3 40 -3 40 -5.8125 38.625 C-8 36 -8 36 -8.09375 33.7265625 C-7.8351558 31.44949687 -7.48330877 29.23949014 -7 27 C-10.24849977 28.72226496 -10.24849977 28.72226496 -11 32 C-13.92879371 31.37240135 -16.36095629 30.41377341 -19 29 C-18.3866964 25.85185368 -17.35206822 23.77025753 -15.48828125 21.171875 C-14.97716797 20.45386719 -14.46605469 19.73585938 -13.93945312 18.99609375 C-13.40255859 18.25488281 -12.86566406 17.51367188 -12.3125 16.75 C-11.79494141 16.02425781 -11.27738281 15.29851563 -10.74414062 14.55078125 C-7.23425786 9.6465615 -3.6371166 4.81040628 0 0 Z " fill="#DF932D" transform="translate(327,42)"/>
<path d="M0 0 C2.87049264 1.34511517 3.49999662 3.07518259 4.90454102 5.88769531 C5.41952148 6.89960937 5.93450195 7.91152344 6.46508789 8.95410156 C6.99038086 10.02015625 7.51567383 11.08621094 8.05688477 12.18457031 C9.10913234 14.27368548 10.16248125 16.36224636 11.21704102 18.45019531 C11.67860596 19.3812207 12.1401709 20.31224609 12.61572266 21.27148438 C13.96396054 23.98580198 13.96396054 23.98580198 15.73046875 26.58984375 C16.35610718 27.7504834 16.35610718 27.7504834 16.99438477 28.93457031 C15.99438477 31.93457031 15.99438477 31.93457031 12.86938477 33.49707031 C8.99438477 33.93457031 8.99438477 33.93457031 7.08032227 32.86035156 C3.99828005 30.25700952 1.09751717 27.3985531 -1.00561523 23.93457031 C-1.00561523 23.27457031 -1.00561523 22.61457031 -1.00561523 21.93457031 C-1.66561523 21.93457031 -2.32561523 21.93457031 -3.00561523 21.93457031 C-2.42811523 22.83820312 -1.85061523 23.74183594 -1.25561523 24.67285156 C-0.50526288 25.86403593 0.24471783 27.05545446 0.99438477 28.24707031 C1.37594727 28.84197266 1.75750977 29.436875 2.15063477 30.04980469 C4.99438477 34.59472656 4.99438477 34.59472656 4.99438477 37.93457031 C1.76646922 40.08651401 0.71037667 40.13543474 -3.00561523 39.93457031 C-3.33561523 38.61457031 -3.66561523 37.29457031 -4.00561523 35.93457031 C-4.66561523 35.93457031 -5.32561523 35.93457031 -6.00561523 35.93457031 C-6.52124023 34.73832031 -7.03686523 33.54207031 -7.56811523 32.30957031 C-10.48297373 25.7380793 -13.76279148 19.34833257 -17.00561523 12.93457031 C-17.67314309 11.60166792 -18.34026642 10.26856176 -19.00561523 8.93457031 C-15.27596384 6.90021501 -13.33656482 5.93457031 -9.00561523 5.93457031 C-7.00561523 8.93457031 -7.00561523 8.93457031 -7.00561523 11.93457031 C-5.68561523 12.59457031 -4.36561523 13.25457031 -3.00561523 13.93457031 C-2.73578218 10.87295843 -2.73578218 10.87295843 -4.56811523 8.49707031 C-6.00561523 5.93457031 -6.00561523 5.93457031 -5.88061523 3.74707031 C-4.58889796 1.07137025 -3.00218209 -0.09794094 0 0 Z " fill="#E3942E" transform="translate(126.005615234375,29.0654296875)"/>
<path d="M0 0 C2.71321069 2.58085895 4.83279544 5.25341362 7.00390625 8.29296875 C8.04671578 9.72781193 9.13951706 11.12755457 10.27734375 12.48828125 C13.00738646 15.79645065 14.45029529 17.83567473 15.25 22.125 C14.35779415 26.42381 13.10626043 27.87392863 9.5625 30.4375 C6.1875 31.625 6.1875 31.625 2.5625 31.4375 C-4.42266937 27.84789907 -8.98357815 19.63501141 -13.4375 13.4375 C-14.02144531 12.72851562 -14.60539062 12.01953125 -15.20703125 11.2890625 C-16.4375 9.4375 -16.4375 9.4375 -16.375 5.9375 C-15.35898339 2.14437131 -14.55515256 0.75347047 -11.4375 -1.5625 C-7.21868562 -3.33168022 -3.76302928 -2.41219826 0 0 Z " fill="#E7972E" transform="translate(97.4375,53.5625)"/>
<path d="M0 0 C1.07314453 0.05478516 2.14628906 0.10957031 3.25195312 0.16601562 C4.9312793 0.27526367 4.9312793 0.27526367 6.64453125 0.38671875 C8.34125977 0.47856445 8.34125977 0.47856445 10.07226562 0.57226562 C12.86828428 0.72563374 15.66266888 0.89349829 18.45703125 1.07421875 C18.45703125 1.73421875 18.45703125 2.39421875 18.45703125 3.07421875 C20.10703125 3.07421875 21.75703125 3.07421875 23.45703125 3.07421875 C23.45703125 3.73421875 23.45703125 4.39421875 23.45703125 5.07421875 C24.44703125 5.40421875 25.43703125 5.73421875 26.45703125 6.07421875 C26.53870571 7.48990939 26.59652823 8.9069868 26.64453125 10.32421875 C26.69673828 11.50757813 26.69673828 11.50757813 26.75 12.71484375 C26.37972391 15.6968005 25.50278089 16.89378352 23.45703125 19.07421875 C21.34741211 19.56005859 21.34741211 19.56005859 18.921875 19.53515625 C17.58286133 19.52935547 17.58286133 19.52935547 16.21679688 19.5234375 C15.28544922 19.49894531 14.35410156 19.47445312 13.39453125 19.44921875 C12.49025391 19.44792969 11.58597656 19.44664062 10.65429688 19.4453125 C4.5197373 19.36638321 -1.66268622 18.94409023 -7.54296875 17.07421875 C-10.02610933 14.03926916 -9.61199824 11.20554344 -9.35546875 7.44921875 C-9.10323947 4.94402623 -8.8455399 3.48760022 -7.35302734 1.44848633 C-4.80971074 -0.48249953 -3.15703613 -0.18374284 0 0 Z " fill="#E6972E" transform="translate(13.54296875,192.92578125)"/>
<path d="M0 0 C7.26 0 14.52 0 22 0 C22 0.66 22 1.32 22 2 C26.62 2 31.24 2 36 2 C36 5.96 36 9.92 36 14 C11.71442774 21.27090841 11.71442774 21.27090841 1 21 C1 18.36 1 15.72 1 13 C2.32 12.67 3.64 12.34 5 12 C5 11.01 5 10.02 5 9 C3.35 8.67 1.7 8.34 0 8 C0 5.36 0 2.72 0 0 Z " fill="#F09C2F" transform="translate(391,194)"/>
<path d="M0 0 C0 3.3 0 6.6 0 10 C-2.05078125 10.71614583 -4.1015625 11.43229167 -6.15234375 12.1484375 C-8.18682116 12.85271413 -8.18682116 12.85271413 -9 15 C-6.03 15 -3.06 15 0 15 C0 17.31 0 19.62 0 22 C-11.73792839 23.66411137 -23.14894742 24.24949584 -35 24 C-35.1953125 17.9453125 -35.1953125 17.9453125 -35 16 C-34.34 15.34 -33.68 14.68 -33 14 C-33.99 13.34 -34.98 12.68 -36 12 C-36.40843923 9.28796348 -36.13336867 6.7562858 -36 4 C-34.35 4 -32.7 4 -31 4 C-31 4.66 -31 5.32 -31 6 C-24.11175931 8.40990104 -24.11175931 8.40990104 -17 10 C-16.67 9.01 -16.34 8.02 -16 7 C-13.56640625 5.4296875 -13.56640625 5.4296875 -10.5625 3.875 C-9.57378906 3.35679687 -8.58507812 2.83859375 -7.56640625 2.3046875 C-3.03293413 0 -3.03293413 0 0 0 Z " fill="#E3952E" transform="translate(40,222)"/>
<path d="M0 0 C1.796875 1.4765625 1.796875 1.4765625 3 3 C3 3.66 3 4.32 3 5 C6.3 5.33 9.6 5.66 13 6 C12.67 8.31 12.34 10.62 12 13 C9.03 13 6.06 13 3 13 C4.98 13.99 6.96 14.98 9 16 C8.42415568 18.38564077 7.77772405 20.66682784 7 23 C0.14869346 21.85811558 -5.2613593 19.58282176 -11.3984375 16.33984375 C-14.00586603 14.91291648 -14.00586603 14.91291648 -17 14 C-17 13.34 -17 12.68 -17 12 C-19.64 11.67 -22.28 11.34 -25 11 C-24.59796387 5.17047614 -23.85321325 1.64652186 -20 -3 C-13.74724597 -5.08425134 -5.94883069 -2.43361255 0 0 Z " fill="#E7972E" transform="translate(43,137)"/>
<path d="M0 0 C3 1 3 1 4.5625 3.4375 C6.3551494 7.88015286 7.20878277 12.28993038 8 17 C8.84820312 17.12246094 9.69640625 17.24492188 10.5703125 17.37109375 C14.12035158 18.02206903 17.43525424 18.97441716 20.875 20.0625 C22.02742188 20.42472656 23.17984375 20.78695312 24.3671875 21.16015625 C25.23601562 21.43730469 26.10484375 21.71445313 27 22 C25.84826645 24.46800047 24.95216435 26.04783565 23 28 C20.8359375 27.9765625 20.8359375 27.9765625 18.375 27.625 C17.55773437 27.51414062 16.74046875 27.40328125 15.8984375 27.2890625 C15.27195312 27.19367188 14.64546875 27.09828125 14 27 C15.32 28.65 16.64 30.3 18 32 C16.84826645 34.46800047 15.95216435 36.04783565 14 38 C9.76798218 37.85375316 7.69094074 34.91970152 4.9375 32 C-0.35260755 26.49962948 -5.98698544 21.71038858 -12 17 C-11.25 12.25 -11.25 12.25 -9 10 C-5 10 -5 10 -3.25 11.5 C-2.8375 11.995 -2.425 12.49 -2 13 C-2.350625 12.278125 -2.70125 11.55625 -3.0625 10.8125 C-4.12787856 7.61636431 -4.0812528 6.1605851 -3 3 C-1.4375 1.1875 -1.4375 1.1875 0 0 Z " fill="#E3952E" transform="translate(66,70)"/>
<path d="M0 0 C4.29 0.33 8.58 0.66 13 1 C13 12.55 13 24.1 13 36 C10.36 36 7.72 36 5 36 C5 34.02 5 32.04 5 30 C3.68 30 2.36 30 1 30 C0.505 32.475 0.505 32.475 0 35 C-2.64 35 -5.28 35 -8 35 C-7.58154504 29.94550453 -6.99488374 25.69384409 -5 21 C-4.47225624 18.88462709 -4.02462581 16.75812783 -3.57421875 14.625 C-2.50154759 9.7213604 -1.23048242 4.86599866 0 0 Z " fill="#EA982F" transform="translate(233,10)"/>
<path d="M0 0 C2.99324263 1.0975223 3.84610901 1.67682892 5.25 4.625 C5.4975 5.40875 5.745 6.1925 6 7 C4.68 8.32 3.36 9.64 2 11 C3.2375 10.7525 4.475 10.505 5.75 10.25 C9.05164616 9.82851326 9.65310511 9.75717357 12.5 11.75 C14 14 14 14 14 17 C12.83082031 17.17273438 11.66164063 17.34546875 10.45703125 17.5234375 C1.87565081 18.75254713 1.87565081 18.75254713 -5.171875 23.24609375 C-6.44140399 25.82041643 -7.29354874 28.22100801 -8 31 C-8.23460937 31.72832031 -8.46921875 32.45664063 -8.7109375 33.20703125 C-9.20605975 34.78563532 -9.61522402 36.39093683 -10 38 C-12.28155293 37.60662881 -13.86700007 37.08713789 -15.8125 35.8125 C-17 34 -17 34 -16.875 31.125 C-15.9944746 27.98026643 -14.82213644 25.693593 -13 23 C-13.99 23 -14.98 23 -16 23 C-16.66 24.32 -17.32 25.64 -18 27 C-22.75 26.25 -22.75 26.25 -25 24 C-24.80131252 21.3848431 -24.18008529 20.20064093 -22.42578125 18.24609375 C-21.72839844 17.64925781 -21.03101563 17.05242187 -20.3125 16.4375 C-19.51457031 15.75429687 -18.71664063 15.07109375 -17.89453125 14.3671875 C-13.26583558 10.58177646 -8.56787785 6.88798413 -3.84375 3.22265625 C-1.85433809 1.68765003 -1.85433809 1.68765003 0 0 Z " fill="#E4962E" transform="translate(372,79)"/>
<path d="M0 0 C3.91904847 0.8930575 7.33016838 2.37680524 11 4 C10.16235721 10.38702628 8.11593953 16.36400158 6.171875 22.48046875 C4.56188097 27.68138084 3.50340566 32.57580398 3 38 C0.36 37.67 -2.28 37.34 -5 37 C-5.33 34.69 -5.66 32.38 -6 30 C-6.99 30 -7.98 30 -9 30 C-9.33 30.99 -9.66 31.98 -10 33 C-14.75 32.125 -14.75 32.125 -17 31 C-17.88382861 25.52457396 -14.81311147 22.05100174 -11.875 17.75 C-11.37379639 16.99726807 -10.87259277 16.24453613 -10.35620117 15.46899414 C-8.91369639 13.30605405 -7.45761985 11.15276831 -6 9 C-4.76978069 7.14653158 -3.5403269 5.29255413 -2.3125 3.4375 C-1.54296956 2.29079125 -0.77279131 1.14451372 0 0 Z " fill="#E5942E" transform="translate(298,26)"/>
<path d="M0 0 C3.66827969 6.54176545 7.11960918 13.0727791 10 20 C10.37382812 20.89460938 10.74765625 21.78921875 11.1328125 22.7109375 C14 29.70847902 14 29.70847902 14 32 C11.36 32.33 8.72 32.66 6 33 C6 32.01 6 31.02 6 30 C4.35 30 2.7 30 1 30 C1 31.98 1 33.96 1 36 C-2.465 36.495 -2.465 36.495 -6 37 C-8.14659158 31.46552693 -8.86152235 25.90933649 -9.625 20.0625 C-9.7590625 19.09892578 -9.893125 18.13535156 -10.03125 17.14257812 C-10.71396019 12.04663422 -11.15729346 7.14063635 -11 2 C-7.1389146 0.56331706 -4.103573 -0.11185208 0 0 Z " fill="#EA982F" transform="translate(158,18)"/>
<path d="M0 0 C9.2773618 0.78956271 17.04674626 5.46166069 25.21508789 9.62548828 C27.79151254 10.93333634 30.25324547 12.08441516 33 13 C32.42415568 15.38564077 31.77772405 17.66682784 31 20 C28.69 19.67 26.38 19.34 24 19 C24 20.32 24 21.64 24 23 C24.66 23.33 25.32 23.66 26 24 C25.38722388 26.96175123 24.74627478 28.38058783 23 31 C18.8876517 30.46568096 16.87343863 28.30189725 13.9375 25.5 C9.20731115 21.04993001 4.305659 17.02254426 -0.8828125 13.10546875 C-3.32702496 10.67478515 -3.89612596 9.42237628 -4 6 C-2.0625 2.6875 -2.0625 2.6875 0 0 Z " fill="#E7952F" transform="translate(39,103)"/>
<path d="M0 0 C11.70134149 -0.15956375 23.31923512 0.33591591 35 1 C34.93997242 3.44012105 34.85299796 5.87413526 34.75 8.3125 C34.73582031 9.00279297 34.72164063 9.69308594 34.70703125 10.40429688 C34.5623091 13.40004542 34.33382098 15.53555342 32.5625 18 C28.47072406 19.59679061 24.56835456 19.04789444 20.25 18.6875 C19.36183594 18.62626953 18.47367187 18.56503906 17.55859375 18.50195312 C15.37092956 18.34905186 13.18546558 18.18127554 11 18 C11 17.34 11 16.68 11 16 C7.37 16 3.74 16 0 16 C0 14.02 0 12.04 0 10 C2.64 10 5.28 10 8 10 C8 9.01 8 8.02 8 7 C5.36 7 2.72 7 0 7 C0 4.69 0 2.38 0 0 Z " fill="#F09E2F" transform="translate(393,227)"/>
<path d="M0 0 C0.72960937 -0.03738281 1.45921875 -0.07476562 2.2109375 -0.11328125 C5.95702622 0.54743666 7.83985472 1.70908051 10.625 4.3125 C11.49343881 7.49842328 11.41895583 10.52969941 11.3125 13.8125 C11.32732422 14.66714844 11.34214844 15.52179687 11.35742188 16.40234375 C11.30092047 20.66321431 11.22517295 22.63359908 8.33203125 25.90625 C5.625 27.3125 5.625 27.3125 1.625 27.3125 C1.625 30.2825 1.625 33.2525 1.625 36.3125 C-1.345 36.3125 -4.315 36.3125 -7.375 36.3125 C-8.2033506 24.62683979 -8.49830415 13.02639465 -8.375 1.3125 C-5.55297111 0.52718427 -2.92851765 0.09761726 0 0 Z " fill="#DB922D" transform="translate(205.375,8.6875)"/>
<path d="M0 0 C2 3 2 3 2 7 C1.3387915 7.35304199 0.67758301 7.70608398 -0.00366211 8.06982422 C-2.98476692 9.66572946 -5.96115606 11.27023467 -8.9375 12.875 C-9.97841797 13.43058594 -11.01933594 13.98617187 -12.09179688 14.55859375 C-13.08115234 15.09355469 -14.07050781 15.62851563 -15.08984375 16.1796875 C-16.00628662 16.67194824 -16.92272949 17.16420898 -17.86694336 17.67138672 C-20.12902542 18.82241862 -20.12902542 18.82241862 -21 21 C-13.59229717 17.41435661 -6.47622942 13.58871721 0.50390625 9.22265625 C3 8 3 8 6 9 C6 9.66 6 10.32 6 11 C6.66 11 7.32 11 8 11 C8.495 12.98 8.495 12.98 9 15 C6.15147334 17.30908281 3.48437914 18.76018236 0.0625 20.0625 C-0.77152344 20.38347656 -1.60554688 20.70445312 -2.46484375 21.03515625 C-3.30144531 21.35355469 -4.13804687 21.67195313 -5 22 C-6.66778102 22.663874 -8.33477532 23.32973962 -10 24 C-10 24.66 -10 25.32 -10 26 C-11.2065625 26.4640625 -11.2065625 26.4640625 -12.4375 26.9375 C-14.89080405 27.76335345 -14.89080405 27.76335345 -16 29 C-19.25 29.5 -19.25 29.5 -23 29 C-26.79008339 25.91526711 -27.86131001 22.84820767 -28.640625 18.08203125 C-28.56605282 15.41166663 -28.37926161 14.38236582 -26.47875977 12.46630859 C-24.3160196 11.04398243 -22.12493615 9.85033584 -19.8125 8.6875 C-19.04357422 8.27177734 -18.27464844 7.85605469 -17.48242188 7.42773438 C-15.99405458 6.62414379 -14.49933023 5.83219025 -12.99780273 5.0534668 C-11.33023968 4.17413958 -9.7021016 3.22056504 -8.0859375 2.25 C-5.38461092 0.63122752 -3.13327152 0 0 0 Z " fill="#E7982E" transform="translate(396,110)"/>
<path d="M0 0 C3 0 3 0 4.60546875 1.46875 C7.58938596 5.29995234 10.28054856 8.81626327 9.921875 13.84765625 C7.07987845 20.48299565 -0.79226031 25.69268322 -7 29 C-10 29.5 -10 29.5 -13 29 C-15.6875 26.6875 -15.6875 26.6875 -18 24 C-18.598125 23.46375 -19.19625 22.9275 -19.8125 22.375 C-21 21 -21 21 -21 18 C-20.34 18 -19.68 18 -19 18 C-19 17.34 -19 16.68 -19 16 C-14.52941176 12 -14.52941176 12 -12 12 C-12 11.34 -12 10.68 -12 10 C-10.23947136 8.41929472 -8.41580202 6.90833714 -6.5625 5.4375 C-5.55316406 4.63183594 -4.54382813 3.82617188 -3.50390625 2.99609375 C-2.67761719 2.33738281 -1.85132812 1.67867188 -1 1 C-0.67 0.67 -0.34 0.34 0 0 Z " fill="#4084C9" transform="translate(79,327)"/>
<path d="M0 0 C2.64 0.66 5.28 1.32 8 2 C7.855625 3.093125 7.71125 4.18625 7.5625 5.3125 C6.9067859 10.53011081 6.45834636 15.76175591 6 21 C8.31 15.39 10.62 9.78 13 4 C15.64 4.33 18.28 4.66 21 5 C20.38956206 7.79938206 19.53508867 10.1016268 18.1875 12.625 C16.20428785 16.48403014 14.59298524 20.4233954 13.01171875 24.4609375 C8.68797954 35.31202046 8.68797954 35.31202046 7 37 C5.00390625 36.9140625 5.00390625 36.9140625 2.5625 36.625 C1.35787109 36.48964844 1.35787109 36.48964844 0.12890625 36.3515625 C-2 36 -2 36 -4 35 C-3.48087749 23.18548771 -1.88331101 11.66705248 0 0 Z " fill="#EA9A2E" transform="translate(262,14)"/>
<path d="M0 0 C3.69659637 0.88299265 4.86294184 2.30003238 6.9296875 5.4609375 C8.90242775 12.5669338 10.75580299 21.89564876 7.9296875 28.9609375 C5.36031135 30.88796961 3.19502433 31.28206113 0.0625 31.7734375 C-3.28029302 31.28365098 -4.73686075 29.86313251 -7.0703125 27.4609375 C-8.07703777 24.93114362 -8.78400039 22.76402806 -9.3828125 20.1484375 C-9.70894531 18.87355469 -10.03507813 17.59867187 -10.37109375 16.28515625 C-12.07924534 6.94280761 -12.07924534 6.94280761 -9.0703125 2.5234375 C-5.73421369 0.22986957 -3.96527474 -0.31422932 0 0 Z " fill="#219FB2" transform="translate(254.0703125,388.5390625)"/>
<path d="M0 0 C10.99720342 2.34696415 21.44471688 6.18349778 32 10 C31.01 10.495 31.01 10.495 30 11 C30.30035156 11.77085937 30.60070312 12.54171875 30.91015625 13.3359375 C31.29042969 14.33882812 31.67070313 15.34171875 32.0625 16.375 C32.44535156 17.37273437 32.82820313 18.37046875 33.22265625 19.3984375 C34 22 34 22 33 24 C31 21 31 21 31 18 C23.08 19.65 15.16 21.3 7 23 C7.78071851 31.06039784 7.78071851 31.06039784 9 39 C5.93859427 35.57227221 4.95362822 31.93766966 3.9375 27.5625 C3.76831055 26.85818848 3.59912109 26.15387695 3.42480469 25.42822266 C1.4595386 17.02756213 -0.15407334 8.65378591 0 0 Z " fill="#858382" transform="translate(92,241)"/>
<path d="M0 0 C1.9375 1.25 1.9375 1.25 3 3 C3.12375 3.680625 3.2475 4.36125 3.375 5.0625 C3.58125 5.701875 3.7875 6.34125 4 7 C5.65984798 7.68346682 7.32836805 8.34588315 9 9 C11.44250498 10.88118396 13.72780945 12.91770434 16 15 C15.505 17.475 15.505 17.475 15 20 C12.41659649 18.85182066 10.6932956 17.72475246 8.5625 15.8125 C6.13686176 13.6819292 6.13686176 13.6819292 3.1875 14.25 C2.465625 14.4975 1.74375 14.745 1 15 C1.38520564 17.53910197 1.70097943 18.72751123 3.62890625 20.484375 C4.26699219 20.90203125 4.90507812 21.3196875 5.5625 21.75 C6.20316406 22.17796875 6.84382813 22.6059375 7.50390625 23.046875 C7.99761719 23.36140625 8.49132812 23.6759375 9 24 C8.67 25.65 8.34 27.3 8 29 C3.79524607 28.46067289 1.44647862 26.0870181 -1.6875 23.375 C-2.74766826 22.46754568 -3.80887686 21.56130545 -4.87109375 20.65625 C-5.39558105 20.20765625 -5.92006836 19.7590625 -6.46044922 19.296875 C-9.88106504 16.41544283 -13.44438381 13.71160629 -17 11 C-16.27323373 6.37326261 -13.74019362 4.34182595 -10.265625 1.4296875 C-6.55810384 -0.9098862 -4.28767166 -0.72672401 0 0 Z " fill="#36A6D3" transform="translate(357,330)"/>
<path d="M0 0 C2.31 0 4.62 0 7 0 C7 1.98 7 3.96 7 6 C7.62003906 6.09796875 8.24007813 6.1959375 8.87890625 6.296875 C17.07379045 7.68058179 25.00251771 9.77667834 33 12 C33 14.64 33 17.28 33 20 C26.26483263 19.40390686 19.97211055 18.14905977 13.4375 16.4375 C12.52419922 16.20353516 11.61089844 15.96957031 10.66992188 15.72851562 C8.44515436 15.15776375 6.22197103 14.58152522 4 14 C4 14.99 4 15.98 4 17 C2.00045254 17.04254356 -0.00041636 17.04080783 -2 17 C-2.33 16.67 -2.66 16.34 -3 16 C-2.84550243 10.46185633 -1.67670682 5.25368138 0 0 Z " fill="#E29A2C" transform="translate(12,162)"/>
<path d="M0 0 C2.77422603 1.93355148 4.5163346 3.96070037 6 7 C6.50060178 10.29200081 6.30736932 12.92492006 5 16 C1.9375 18.0625 1.9375 18.0625 -1 19 C-0.44894091 22.9492568 0.38935371 26.34920174 2 30 C0.35 30.66 -1.3 31.32 -3 32 C-4.12753944 29.29269941 -5.25209812 26.58422359 -6.375 23.875 C-6.85066406 22.73417969 -6.85066406 22.73417969 -7.3359375 21.5703125 C-9.05236586 17.4222773 -10.64493915 13.28418229 -12 9 C-12.66 9 -13.32 9 -14 9 C-14.33 7.35 -14.66 5.7 -15 4 C-10.04012215 1.11425289 -5.87235278 -1.19622001 0 0 Z " fill="#24ADC0" transform="translate(294,377)"/>
<path d="M0 0 C1.75032844 0.14183696 3.50025534 0.28863429 5.25 0.4375 C6.71179688 0.55931641 6.71179688 0.55931641 8.203125 0.68359375 C10.56461753 0.95074584 12.71901065 1.35371968 15 2 C15 3.65 15 5.3 15 7 C9.555 6.505 9.555 6.505 4 6 C3.67 8.31 3.34 10.62 3 13 C5.64 13.33 8.28 13.66 11 14 C11 15.65 11 17.3 11 19 C7.7 18.67 4.4 18.34 1 18 C1 20.64 1 23.28 1 26 C3.64 26.33 6.28 26.66 9 27 C9 28.65 9 30.3 9 32 C7.43789839 32.05459773 5.87522911 32.09306101 4.3125 32.125 C3.00732422 32.15980469 3.00732422 32.15980469 1.67578125 32.1953125 C-1.23457694 31.9828776 -3.35991129 31.20825682 -6 30 C-5.68753253 22.3445471 -4.18421043 15.48239134 -1.9375 8.1640625 C-1.13234896 5.44667773 -0.50097602 2.78667911 0 0 Z " fill="#22B4C3" transform="translate(171,388)"/>
<path d="M0 0 C1.32 0 2.64 0 4 0 C4 0.66 4 1.32 4 2 C4.99 2.33 5.98 2.66 7 3 C5.20018757 8.53706999 1.6678496 12.66061904 -1.8359375 17.20898438 C-4.78827295 21.12002658 -7.05264595 24.88632449 -8.93212891 29.42260742 C-10 31 -10 31 -11.97802734 31.8137207 C-14 32 -14 32 -16.25 30.5625 C-16.8275 30.046875 -17.405 29.53125 -18 29 C-17.52223477 22.55016941 -16.09126102 16.73482217 -13 11 C-12.01 10.34 -11.02 9.68 -10 9 C-10 10.65 -10 12.3 -10 14 C-9.01 14 -8.02 14 -7 14 C-6.89300781 13.27425781 -6.78601563 12.54851563 -6.67578125 11.80078125 C-5.94635095 8.77765107 -4.88619851 6.78070304 -3.1875 4.1875 C-2.68605469 3.39730469 -2.18460937 2.60710938 -1.66796875 1.79296875 C-1.11753906 1.20128906 -0.56710937 0.60960937 0 0 Z " fill="#EB982F" transform="translate(338,50)"/>
<path d="M0 0 C1.32 0.33 2.64 0.66 4 1 C3.67 6.28 3.34 11.56 3 17 C5.64 13.04 8.28 9.08 11 5 C13.475 5.495 13.475 5.495 16 6 C16 6.99 16 7.98 16 9 C15.34 9 14.68 9 14 9 C13.9071875 10.0828125 13.9071875 10.0828125 13.8125 11.1875 C13 14 13 14 10.703125 16.28515625 C7.07061317 19.93341597 4.65347532 24.08742621 1.96484375 28.453125 C0 31 0 31 -2.05859375 31.921875 C-4 32 -4 32 -7 31 C-6.95613367 20.01148468 -3.51381238 10.27279706 0 0 Z " fill="#3BA1D7" transform="translate(136,374)"/>
<path d="M0 0 C1.60495567 0.11442461 3.20898119 0.24194694 4.8125 0.375 C6.15248047 0.47941406 6.15248047 0.47941406 7.51953125 0.5859375 C10 1 10 1 13 3 C11.71427532 6.52289335 10.20776926 9.36700024 7.99609375 12.390625 C7.42052734 13.18210937 6.84496094 13.97359375 6.25195312 14.7890625 C5.65318359 15.60117188 5.05441406 16.41328125 4.4375 17.25 C3.83486328 18.07757813 3.23222656 18.90515625 2.61132812 19.7578125 C-1.80537614 25.80537614 -1.80537614 25.80537614 -3 27 C-5.01964199 27.07244053 -7.04167124 27.08377188 -9.0625 27.0625 C-10.16722656 27.05347656 -11.27195313 27.04445312 -12.41015625 27.03515625 C-13.69212891 27.01775391 -13.69212891 27.01775391 -15 27 C-14.34 26.67 -13.68 26.34 -13 26 C-12.70609375 25.26265625 -12.4121875 24.5253125 -12.109375 23.765625 C-10.86699189 20.66841641 -9.2575825 18.41121401 -7.25 15.75 C-3.66797753 10.93257197 -0.27773314 6.02834061 3 1 C2.01 0.67 1.02 0.34 0 0 Z " fill="#B7B6B7" transform="translate(229,105)"/>
<path d="M0 0 C4.26658812 0.79885054 6.03228428 2.87608871 9 6 C9.66 6.33 10.32 6.66 11 7 C10.67 8.32 10.34 9.64 10 11 C6.6341541 10.43902568 4.01888813 9.56149386 1 8 C0.34 8 -0.32 8 -1 8 C-1.33 9.65 -1.66 11.3 -2 13 C-1.175 13.5775 -0.35 14.155 0.5 14.75 C1.7375 15.86375 1.7375 15.86375 3 17 C3 18.32 3 19.64 3 21 C-1.75 20.25 -1.75 20.25 -4 18 C-6.02077346 17.94098078 -6.02077346 17.94098078 -8 19 C-9.77148372 21.47933197 -9.77148372 21.47933197 -11 24 C-10.1028125 24.433125 -10.1028125 24.433125 -9.1875 24.875 C-7 26 -7 26 -4 28 C-4.33 29.32 -4.66 30.64 -5 32 C-10.35152885 31.67566492 -13.28280043 28.50295176 -17 25 C-16.52902811 20.21919104 -14.24053793 17.24763772 -11.3125 13.625 C-10.63791748 12.76998901 -10.63791748 12.76998901 -9.94970703 11.89770508 C-6.73365449 7.84386219 -3.42680708 3.87770275 0 0 Z " fill="#34A3CE" transform="translate(107,355)"/>
<path d="M0 0 C0.33 0 0.66 0 1 0 C1 12.87 1 25.74 1 39 C2.65 38.01 4.3 37.02 6 36 C5.73832031 36.82371094 5.47664063 37.64742188 5.20703125 38.49609375 C4.91338273 43.46595642 6.96788134 46.04496678 9.6875 50.0625 C10.13544922 50.75666016 10.58339844 51.45082031 11.04492188 52.16601562 C13.50956303 55.94369704 16.11128615 59.52948429 19 63 C17.5665848 64.15093925 16.12811091 65.29558035 14.6875 66.4375 C13.88699219 67.07558594 13.08648437 67.71367187 12.26171875 68.37109375 C10 70 10 70 7 71 C6.69255859 69.71802734 6.69255859 69.71802734 6.37890625 68.41015625 C6.10949219 67.30542969 5.84007812 66.20070313 5.5625 65.0625 C5.29566406 63.96035156 5.02882813 62.85820312 4.75390625 61.72265625 C4.27004275 59.10578746 4.27004275 59.10578746 3 58 C2.84417697 56.65984779 2.74955858 55.31241097 2.68359375 53.96484375 C2.62075195 52.75151367 2.62075195 52.75151367 2.55664062 51.51367188 C2.51732422 50.66353516 2.47800781 49.81339844 2.4375 48.9375 C2.39431641 48.08349609 2.35113281 47.22949219 2.30664062 46.34960938 C2.20023298 44.23327963 2.09958269 42.11666187 2 40 C1.34 40 0.68 40 0 40 C-0.9976177 32.55745527 -1.1504073 25.25362259 -1.125 17.75 C-1.12886719 16.59242188 -1.13273437 15.43484375 -1.13671875 14.2421875 C-1.13542969 13.12585938 -1.13414062 12.00953125 -1.1328125 10.859375 C-1.13168457 9.85358398 -1.13055664 8.84779297 -1.12939453 7.81152344 C-1.00485809 5.10555795 -0.60734159 2.63563333 0 0 Z " fill="#8A807B" transform="translate(281,259)"/>
<path d="M0 0 C1.18142578 -0.00257812 2.36285156 -0.00515625 3.58007812 -0.0078125 C4.81564453 -0.00007813 6.05121094 0.00765625 7.32421875 0.015625 C8.54818359 0.00789063 9.77214844 0.00015625 11.03320312 -0.0078125 C12.21849609 -0.00523438 13.40378906 -0.00265625 14.625 0 C15.70563721 0.00225586 16.78627441 0.00451172 17.8996582 0.00683594 C21.20714067 0.28187567 23.91674326 1.09538551 27.01171875 2.265625 C25.62271128 6.20587069 23.77296383 9.18676524 21.26171875 12.515625 C18.084766 16.77851797 15.09424982 21.1025455 12.23828125 25.5859375 C11.01171875 27.265625 11.01171875 27.265625 9.01171875 28.265625 C6.33935665 28.39977972 3.68921387 28.30881041 1.01171875 28.265625 C2.56754485 23.6333066 5.08790576 20.09665769 7.94921875 16.203125 C8.39201172 15.59146484 8.83480469 14.97980469 9.29101562 14.34960938 C11.07588605 11.889095 12.86170899 9.45238548 14.765625 7.08203125 C16.31141869 5.05512812 16.31141869 5.05512812 17.01171875 1.265625 C8.43171875 1.595625 -0.14828125 1.925625 -8.98828125 2.265625 C-5.50896813 -0.05391708 -4.10748745 0.00860142 0 0 Z " fill="#DCDCDC" transform="translate(204.98828125,103.734375)"/>
<path d="M0 0 C0.99 0.33 1.98 0.66 3 1 C2.60196439 3.88575819 2.20990931 4.82189513 -0.0625 6.75 C-0.701875 7.1625 -1.34125 7.575 -2 8 C-1.67 9.32 -1.34 10.64 -1 12 C0.84725052 12.69159401 0.84725052 12.69159401 3 13 C3.99 12.34 4.98 11.68 6 11 C8.1875 11.375 8.1875 11.375 10 12 C10 12.99 10 13.98 10 15 C6.66666667 18 6.66666667 18 4 18 C4.62533375 20.52363988 4.62533375 20.52363988 6 23 C8.39351495 24.16210219 8.39351495 24.16210219 11 24 C12.02019573 23.0206121 13.02149805 22.02104551 14 21 C16.125 21.125 16.125 21.125 18 22 C18.33 22.99 18.66 23.98 19 25 C17.59627198 26.20276695 16.17647903 27.38680519 14.75 28.5625 C13.56664062 29.55443359 13.56664062 29.55443359 12.359375 30.56640625 C10 32 10 32 8.06616211 31.84448242 C5.33319164 30.72746188 4.32784392 29.29121016 2.58203125 26.921875 C1.96779297 26.09042969 1.35355469 25.25898438 0.72070312 24.40234375 C0.09099609 23.52707031 -0.53871094 22.65179688 -1.1875 21.75 C-1.82880859 20.89019531 -2.47011719 20.03039062 -3.13085938 19.14453125 C-8.28511635 12.07987914 -8.28511635 12.07987914 -9 7 C-7.87720538 6.01830524 -6.75168527 5.03972702 -5.625 4.0625 C-4.68527344 3.24458984 -4.68527344 3.24458984 -3.7265625 2.41015625 C-2 1 -2 1 0 0 Z " fill="#37A6D5" transform="translate(323,355)"/>
<path d="M0 0 C0.67408308 1.26691507 1.33900497 2.53870749 2 3.8125 C2.556875 4.87404297 2.556875 4.87404297 3.125 5.95703125 C4 8 4 8 4 11 C3.01 10.34 2.02 9.68 1 9 C-7.13920448 9.39383247 -17.15260384 10.43506923 -24 15 C-24.33 11.7 -24.66 8.4 -25 5 C-20.56335408 2.96727378 -16.1488935 2.17336444 -11.375 1.375 C-10.2303125 1.17390625 -10.2303125 1.17390625 -9.0625 0.96875 C-6.00629825 0.44329777 -3.10671836 0 0 0 Z " fill="#B4B4B5" transform="translate(123,259)"/>
<path d="M0 0 C0.33 1.32 0.66 2.64 1 4 C0.34 4 -0.32 4 -1 4 C1.68829819 9.64040134 4.69281835 14.74604041 8.25 19.875 C13 26.73314607 13 26.73314607 13 29 C13.99 29.33 14.98 29.66 16 30 C14.3125 32.0625 14.3125 32.0625 12 34 C9.00132995 33.82323818 7.4875596 33.47420857 5.31494141 31.36108398 C3.72786533 29.06731687 2.15692166 26.76860489 0.625 24.4375 C-0.21224609 23.25704102 -0.21224609 23.25704102 -1.06640625 22.05273438 C-3.62068833 18.22761812 -5.46675691 15.35749296 -4.98046875 10.66015625 C-3.83403284 6.38043337 -2.3803957 3.68577398 0 0 Z " fill="#DBDBDB" transform="translate(301,273)"/>
<path d="M0 0 C1.98 0 3.96 0 6 0 C6 8.58 6 17.16 6 26 C8.97 26 11.94 26 15 26 C15 27.32 15 28.64 15 30 C10.05 30 5.1 30 0 30 C0 20.1 0 10.2 0 0 Z " fill="#227797" transform="translate(207,393)"/>
<path d="M0 0 C0.63671875 2.11328125 0.63671875 2.11328125 1 4 C-0.175625 4.103125 -1.35125 4.20625 -2.5625 4.3125 C-8.3662529 4.94193413 -14.03701746 6.17448146 -19.7421875 7.37890625 C-23 8 -23 8 -26 8 C-26.33 8.99 -26.66 9.98 -27 11 C-28.87125129 7.14742381 -28.99030231 5.12048864 -28 1 C-26.78763672 0.80083984 -26.78763672 0.80083984 -25.55078125 0.59765625 C-24.48214844 0.42105469 -23.41351563 0.24445313 -22.3125 0.0625 C-21.25675781 -0.11152344 -20.20101562 -0.28554688 -19.11328125 -0.46484375 C-15.37087385 -1.10814339 -11.68400054 -1.82899987 -8 -2.75 C-4.27171893 -3.06069009 -2.85570157 -2.36615273 0 0 Z " fill="#C9C9CA" transform="translate(129,270)"/>
<path d="M0 0 C0.8125 1.625 0.8125 1.625 1 4 C-0.46818136 6.24609835 -2.15852858 8.02378677 -4 10 C-3.56429688 10.61746094 -3.12859375 11.23492187 -2.6796875 11.87109375 C0.38512822 16.22950052 3.43750725 20.59666936 6.4375 25 C6.93121094 25.721875 7.42492187 26.44375 7.93359375 27.1875 C9 29 9 29 9 31 C9.66 31.33 10.32 31.66 11 32 C9.75 33.5625 9.75 33.5625 8 35 C5.31834933 34.77017354 4.24634802 34.26349148 2.39672852 32.28515625 C0.75198706 29.87664311 -0.85772447 27.45169365 -2.4375 25 C-3.01693359 24.17371094 -3.59636719 23.34742188 -4.19335938 22.49609375 C-8.12925159 16.41378389 -8.12925159 16.41378389 -7.77075195 12.49243164 C-6.16977174 7.41515555 -3.64271544 3.83961898 0 0 Z " fill="#A5A5A6" transform="translate(293,286)"/>
<path d="M0 0 C3.05284887 1.7471883 3.91290636 2.73904405 5.046875 6.13671875 C5.27890625 7.30847656 5.5109375 8.48023438 5.75 9.6875 C5.99234375 10.86699219 6.2346875 12.04648438 6.484375 13.26171875 C6.65453125 14.16535156 6.8246875 15.06898438 7 16 C6.01 16 5.02 16 4 16 C4 14.68 4 13.36 4 12 C3.38479492 12.09611572 2.76958984 12.19223145 2.13574219 12.29125977 C-0.65832063 12.72312217 -3.45406652 13.14292676 -6.25 13.5625 C-7.21808594 13.71396484 -8.18617188 13.86542969 -9.18359375 14.02148438 C-10.11816406 14.16005859 -11.05273438 14.29863281 -12.015625 14.44140625 C-12.87446289 14.57232666 -13.73330078 14.70324707 -14.61816406 14.83813477 C-17.01042114 15.0007082 -18.72802578 14.71976511 -21 14 C-18.25727599 12.4864028 -15.50474367 10.99159291 -12.75 9.5 C-11.97269531 9.07074219 -11.19539063 8.64148438 -10.39453125 8.19921875 C-9.64042969 7.79316406 -8.88632812 7.38710937 -8.109375 6.96875 C-7.41811523 6.59169922 -6.72685547 6.21464844 -6.01464844 5.82617188 C-4 5 -4 5 0 5 C0 3.35 0 1.7 0 0 Z " fill="#130D1C" transform="translate(416,150)"/>
<path d="M0 0 C1.32 0.33 2.64 0.66 4 1 C3.67 6.28 3.34 11.56 3 17 C4.32 15.02 5.64 13.04 7 11 C7.33 12.32 7.66 13.64 8 15 C7.01 15.33 6.02 15.66 5 16 C5 16.99 5 17.98 5 19 C4.34 19 3.68 19 3 19 C2.731875 19.639375 2.46375 20.27875 2.1875 20.9375 C1 23 1 23 -2 24 C-2.66 22.68 -3.32 21.36 -4 20 C-4.33 23.63 -4.66 27.26 -5 31 C-5.66 31 -6.32 31 -7 31 C-6.95613367 20.01148468 -3.51381238 10.27279706 0 0 Z " fill="#2A80A8" transform="translate(136,374)"/>
<path d="M0 0 C2.125 0.9375 2.125 0.9375 4 2 C4.2890625 4.203125 4.2890625 4.203125 4 7 C2.0234375 9.421875 2.0234375 9.421875 -0.625 11.75 C-1.91277344 12.91789062 -1.91277344 12.91789062 -3.2265625 14.109375 C-6.28940407 16.1972839 -8.31145049 16.855351 -12 17 C-12.66 16.34 -13.32 15.68 -14 15 C-13.93770981 11.80935798 -12.79003415 10.78059748 -10.56640625 8.45703125 C-9.57291575 7.56672618 -8.57129693 6.68542339 -7.5625 5.8125 C-7.05912109 5.36197266 -6.55574219 4.91144531 -6.03710938 4.44726562 C-4.09776495 2.72941339 -2.32751117 1.16375559 0 0 Z " fill="#08102A" transform="translate(79,334)"/>
<path d="M0 0 C1.32 0.66 2.64 1.32 4 2 C4.08131463 3.43655854 4.13933559 4.8744483 4.1875 6.3125 C4.22230469 7.11300781 4.25710938 7.91351563 4.29296875 8.73828125 C3.93312505 11.51627459 3.16758647 12.29427215 1 14 C0.01 14.495 0.01 14.495 -1 15 C-0.44894091 18.9492568 0.38935371 22.34920174 2 26 C0.35 26.66 -1.3 27.32 -3 28 C-3.87279862 26.13360019 -4.72251027 24.25639389 -5.5625 22.375 C-6.27599609 20.80878906 -6.27599609 20.80878906 -7.00390625 19.2109375 C-8.10684175 15.65559246 -7.89552313 13.57136768 -7 10 C-6.34 10.33 -5.68 10.66 -5 11 C-2.23204449 10.19078127 -2.23204449 10.19078127 0 8 C0.45668592 5.20486209 0.23424477 2.85778615 0 0 Z " fill="#37A5D4" transform="translate(294,381)"/>
<path d="M0 0 C0.33 1.65 0.66 3.3 1 5 C-1.31 5 -3.62 5 -6 5 C-6.66 6.32 -7.32 7.64 -8 9 C-6.02 9.99 -4.04 10.98 -2 12 C-2.33 12.99 -2.66 13.98 -3 15 C-5.5625 15.875 -5.5625 15.875 -9 16 C-11.6317915 14.29275002 -13.80915266 12.23621992 -16 10 C-15.2428195 6.04201103 -13.75435948 3.96764652 -10.8984375 1.1953125 C-7.48349139 -0.95483875 -3.8805885 -0.46567062 0 0 Z " fill="#26C4D4" transform="translate(356,331)"/>
<path d="M0 0 C1.65 0 3.3 0 5 0 C7.69806794 6.9211308 9.28969158 12.46801884 9 20 C8 21 8 21 5.4375 21.0625 C4.633125 21.041875 3.82875 21.02125 3 21 C1.18225815 13.90215087 -0.43230491 7.34918342 0 0 Z " fill="#070B25" transform="translate(249,394)"/>
<path d="M0 0 C2.16874252 0.50603992 3.99967627 0.99983813 6 2 C4.71427532 5.52289335 3.20776926 8.36700024 0.99609375 11.390625 C0.42052734 12.18210937 -0.15503906 12.97359375 -0.74804688 13.7890625 C-1.34681641 14.60117188 -1.94558594 15.41328125 -2.5625 16.25 C-3.16513672 17.07757813 -3.76777344 17.90515625 -4.38867188 18.7578125 C-8.80537614 24.80537614 -8.80537614 24.80537614 -10 26 C-12.01964199 26.07244053 -14.04167124 26.08377188 -16.0625 26.0625 C-17.16722656 26.05347656 -18.27195313 26.04445312 -19.41015625 26.03515625 C-20.69212891 26.01775391 -20.69212891 26.01775391 -22 26 C-22 25.67 -22 25.34 -22 25 C-20.82179687 25.02835938 -19.64359375 25.05671875 -18.4296875 25.0859375 C-15.49772297 24.71766518 -14.28305195 24.27826207 -12.15332031 22.18457031 C-10.35374598 19.72648965 -8.72115647 17.21969985 -7.125 14.625 C-6.5578125 13.7484375 -5.990625 12.871875 -5.40625 11.96875 C-4.3571135 10.34283704 -3.31830597 8.71017791 -2.29345703 7.06884766 C-1.22528394 5.36033524 -0.11769108 3.67653663 1 2 C0.67 1.34 0.34 0.68 0 0 Z " fill="#A6A6A7" transform="translate(236,106)"/>
<path d="M0 0 C0.99 0.33 1.98 0.66 3 1 C3 2.32 3 3.64 3 5 C3.66 5 4.32 5 5 5 C5.45378151 12.86554622 5.45378151 12.86554622 4 16.5 C0.93171603 18.80121298 -2.20362736 19.2291573 -6 19 C-8.5 17.5625 -8.5 17.5625 -10 16 C-9.67 14.35 -9.34 12.7 -9 11 C-7.515 11.99 -7.515 11.99 -6 13 C-4.35 13 -2.7 13 -1 13 C-0.67 8.71 -0.34 4.42 0 0 Z " fill="#428AD0" transform="translate(258,401)"/>
<path d="M0 0 C7.26 0 14.52 0 22 0 C22 0.66 22 1.32 22 2 C26.62 2 31.24 2 36 2 C36 5.96 36 9.92 36 14 C35.01 13.67 34.02 13.34 33 13 C33.66 13 34.32 13 35 13 C35 9.7 35 6.4 35 3 C24.44 3 13.88 3 3 3 C2.67 4.32 2.34 5.64 2 7 C3.65 7 5.3 7 7 7 C7 9.31 7 11.62 7 14 C5.35 14 3.7 14 2 14 C2 16.31 2 18.62 2 21 C1.67 21 1.34 21 1 21 C1 18.36 1 15.72 1 13 C2.32 12.67 3.64 12.34 5 12 C5 11.01 5 10.02 5 9 C3.35 8.67 1.7 8.34 0 8 C0 5.36 0 2.72 0 0 Z " fill="#9E6229" transform="translate(391,194)"/>
<path d="M0 0 C3.61497055 3.30712634 6.38422852 7.21195227 6.6875 12.1875 C5.87554012 16.69018662 4.52059677 18.18352258 1 21 C-0.32 20.34 -1.64 19.68 -3 19 C-2.505 18.278125 -2.01 17.55625 -1.5 16.8125 C0.07919285 13.85151341 0.28178312 12.28746971 0 9 C-0.9590625 8.8453125 -0.9590625 8.8453125 -1.9375 8.6875 C-2.618125 8.460625 -3.29875 8.23375 -4 8 C-4.33 7.01 -4.66 6.02 -5 5 C-4.67 4.67 -4.34 4.34 -4 4 C-4.66 3.67 -5.32 3.34 -6 3 C-3.375 0 -3.375 0 0 0 Z " fill="#21AABA" transform="translate(82,327)"/>
<path d="M0 0 C2.475 0.495 2.475 0.495 5 1 C3.61099253 4.94024569 1.76124508 7.92114024 -0.75 11.25 C-3.4071845 14.7897151 -5.83814634 18.33777675 -8.125 22.125 C-10.20015176 25.32324214 -10.576734 25.86674959 -14.375 27.0625 C-15.24125 27.041875 -16.1075 27.02125 -17 27 C-16 24 -16 24 -14.29296875 22.3125 C-11.17710759 19.17009828 -8.80511185 15.6448258 -6.3125 12 C-5.56516602 10.93265625 -5.56516602 10.93265625 -4.80273438 9.84375 C-4.32771484 9.1528125 -3.85269531 8.461875 -3.36328125 7.75 C-2.93313721 7.12609375 -2.50299316 6.5021875 -2.05981445 5.859375 C-0.95052297 3.9131958 -0.43656058 2.18794603 0 0 Z " fill="#D1D1D2" transform="translate(227,105)"/>
<path d="M0 0 C0.33 0 0.66 0 1 0 C5.2089505 19.99251487 4.41567095 41.3681928 -1 61 C-1.33 61 -1.66 61 -2 61 C-1.85688704 59.14562138 -1.71036549 57.29150571 -1.5625 55.4375 C-1.48128906 54.40496094 -1.40007812 53.37242187 -1.31640625 52.30859375 C-1.11166675 50.16767578 -0.83902873 48.03172414 -0.48632812 45.91015625 C0.08896753 41.2846868 0.12487729 36.78365076 0.09765625 32.12890625 C0.0962413 31.206577 0.09482635 30.28424774 0.09336853 29.33396912 C0.08780506 26.41011202 0.07525942 23.48633365 0.0625 20.5625 C0.05748028 18.57096465 0.0529182 16.5794281 0.04882812 14.58789062 C0.03784762 9.72523044 0.02060839 4.86262853 0 0 Z " fill="#B35C2F" transform="translate(353,201)"/>
<path d="M0 0 C3.36443164 1.12147721 3.61385196 1.5286578 5.33984375 4.421875 C5.76330078 5.11796875 6.18675781 5.8140625 6.62304688 6.53125 C7.05681641 7.2634375 7.49058594 7.995625 7.9375 8.75 C10.72904911 13.40397692 13.47617849 17.84663266 17 22 C16.34 22.66 15.68 23.32 15 24 C14.01 24 13.02 24 12 24 C10.69726562 22.51879883 10.69726562 22.51879883 9.40625 20.45703125 C8.93316406 19.71259766 8.46007812 18.96816406 7.97265625 18.20117188 C7.48667969 17.41291016 7.00070312 16.62464844 6.5 15.8125 C6.01402344 15.04357422 5.52804687 14.27464844 5.02734375 13.48242188 C2.63476796 9.68494122 0.28992585 5.86038175 -2 2 C-1.34 1.34 -0.68 0.68 0 0 Z " fill="#B5B5B6" transform="translate(290,293)"/>
<path d="M0 0 C2.97 -0.020625 5.94 -0.04125 9 -0.0625 C9.91910156 -0.071604 10.83820313 -0.08070801 11.78515625 -0.09008789 C16.95191214 -0.10725871 21.88739325 0.24849415 27 1 C27 1.33 27 1.66 27 2 C18.75 1.67 10.5 1.34 2 1 C2 3.31 2 5.62 2 8 C4.64 8 7.28 8 10 8 C10 8.99 10 9.98 10 11 C7.36 11 4.72 11 2 11 C2 12.98 2 14.96 2 17 C5.63 17 9.26 17 13 17 C13 17.33 13 17.66 13 18 C6.565 18.495 6.565 18.495 0 19 C0 12.73 0 6.46 0 0 Z " fill="#5B3523" transform="translate(391,226)"/>
<path d="M0 0 C0.66 0 1.32 0 2 0 C3.21693876 2.43387753 3.31959896 4.41838846 3.5625 7.125 C3.64628906 8.03507812 3.73007813 8.94515625 3.81640625 9.8828125 C3.87699219 10.58148438 3.93757812 11.28015625 4 12 C6.97 12.33 9.94 12.66 13 13 C13 14.32 13 15.64 13 17 C8.38 17 3.76 17 -1 17 C-1.13392857 4.8125 -1.13392857 4.8125 0 0 Z " fill="#4792DC" transform="translate(209,406)"/>
<path d="M0 0 C0 5.09200587 -2.92896301 7.91117169 -6.3515625 11.390625 C-13.39740566 18 -13.39740566 18 -18 18 C-17.75 15.625 -17.75 15.625 -17 13 C-14.9375 11.6875 -14.9375 11.6875 -13 11 C-13 10.34 -13 9.68 -13 9 C-9.5265899 5.31638353 -5.84367231 2.56707045 -1 1 C-0.67 0.67 -0.34 0.34 0 0 Z " fill="#3B9FD6" transform="translate(80,328)"/>
<path d="M0 0 C4.26167447 0.47351939 6.15020808 3.00021903 9 6 C9.66 6.33 10.32 6.66 11 7 C10.67 8.32 10.34 9.64 10 11 C6.6341541 10.43902568 4.01888813 9.56149386 1 8 C0.34 8 -0.32 8 -1 8 C-1.33 9.98 -1.66 11.96 -2 14 C-2.66 14 -3.32 14 -4 14 C-4 13.34 -4 12.68 -4 12 C-4.66 12 -5.32 12 -6 12 C-5.625 10.0625 -5.625 10.0625 -5 8 C-4.34 7.67 -3.68 7.34 -3 7 C-1.94647157 4.69034152 -0.94280904 2.3570226 0 0 Z " fill="#23BAC8" transform="translate(107,355)"/>
<path d="M0 0 C0.556875 0.7734375 0.556875 0.7734375 1.125 1.5625 C-4.38332003 3.62116506 -9.98716267 4.63332244 -15.75 5.6875 C-16.72453125 5.86925781 -17.6990625 6.05101562 -18.703125 6.23828125 C-21.09307562 6.68346813 -23.48367627 7.12475969 -25.875 7.5625 C-25.545 5.9125 -25.215 4.2625 -24.875 2.5625 C-23.66263672 2.36333984 -23.66263672 2.36333984 -22.42578125 2.16015625 C-21.35714844 1.98355469 -20.28851563 1.80695313 -19.1875 1.625 C-18.13175781 1.45097656 -17.07601562 1.27695312 -15.98828125 1.09765625 C-12.20835724 0.44790771 -8.47938813 -0.29244685 -4.75 -1.1875 C-1.875 -1.4375 -1.875 -1.4375 0 0 Z " fill="#C3C2C3" transform="translate(125.875,268.4375)"/>
<path d="M0 0 C0.66 0 1.32 0 2 0 C2 2.64 2 5.28 2 8 C4.97 8.33 7.94 8.66 11 9 C11 10.65 11 12.3 11 14 C6.02906176 13.58846263 1.55491614 13.20399168 -3 11 C-2.67 8.36 -2.34 5.72 -2 3 C-1.34 3 -0.68 3 0 3 C0 2.01 0 1.02 0 0 Z " fill="#4389D1" transform="translate(169,406)"/>
<path d="M0 0 C0.99 0.33 1.98 0.66 3 1 C2.60196439 3.88575819 2.20990931 4.82189513 -0.0625 6.75 C-0.701875 7.1625 -1.34125 7.575 -2 8 C-1.67 9.32 -1.34 10.64 -1 12 C1.49064888 12.68707555 3.37886292 13 6 13 C4 15 4 15 1.625 15.3125 C-1.45666192 14.94563549 -2.61847376 13.90522099 -5 12 C-5.99 12 -6.98 12 -8 12 C-8.33 10.35 -8.66 8.7 -9 7 C-7.87720538 6.01830524 -6.75168527 5.03972702 -5.625 4.0625 C-4.68527344 3.24458984 -4.68527344 3.24458984 -3.7265625 2.41015625 C-2 1 -2 1 0 0 Z " fill="#23A8BB" transform="translate(323,355)"/>
<path d="M0 0 C1.32 0 2.64 0 4 0 C6.17457267 2.87354245 7 4.36436591 7 8 C7.66 8 8.32 8 9 8 C8.67 8.66 8.34 9.32 8 10 C6.75283203 10.39832031 6.75283203 10.39832031 5.48046875 10.8046875 C0.21107113 12.61437961 -4.26210456 15.62896169 -8.98632812 18.54296875 C-9.71658203 18.98511719 -10.44683594 19.42726562 -11.19921875 19.8828125 C-12.18668091 20.49213623 -12.18668091 20.49213623 -13.1940918 21.11376953 C-15 22 -15 22 -18 22 C-16.77603406 18.32810219 -15.91117215 18.09965865 -12.59765625 16.30078125 C-11.70755859 15.81416016 -10.81746094 15.32753906 -9.90039062 14.82617188 C-8.96388672 14.32666016 -8.02738281 13.82714844 -7.0625 13.3125 C-6.12986328 12.80138672 -5.19722656 12.29027344 -4.23632812 11.76367188 C2.71314878 8 2.71314878 8 5 8 C4.34 5.69 3.68 3.38 3 1 C1.68 1.33 0.36 1.66 -1 2 C-0.67 1.34 -0.34 0.68 0 0 Z " fill="#694823" transform="translate(393,109)"/>
<path d="M0 0 C2.125 0.125 2.125 0.125 4 1 C4.33 1.99 4.66 2.98 5 4 C3.59627198 5.20276695 2.17647903 6.38680519 0.75 7.5625 C-0.43335938 8.55443359 -0.43335938 8.55443359 -1.640625 9.56640625 C-4 11 -4 11 -6.18359375 10.83203125 C-8.67151686 9.69240195 -9.67533074 8.37046078 -11 6 C-10.67 5.01 -10.34 4.02 -10 3 C-8.3603125 3.0928125 -8.3603125 3.0928125 -6.6875 3.1875 C-2.6449922 2.98194876 -2.50522106 2.74381354 0 0 Z " fill="#4185CB" transform="translate(337,376)"/>
<path d="M0 0 C-0.33 1.32 -0.66 2.64 -1 4 C-8.92 5.32 -16.84 6.64 -25 8 C-24.67 6.68 -24.34 5.36 -24 4 C-20.56336386 3.32882733 -17.12555959 2.66383929 -13.6875 2 C-12.71103516 1.80921875 -11.73457031 1.6184375 -10.72851562 1.421875 C-9.79072266 1.24140625 -8.85292969 1.0609375 -7.88671875 0.875 C-7.02264404 0.70742188 -6.15856934 0.53984375 -5.26831055 0.3671875 C-3 0 -3 0 0 0 Z " fill="#A2A2A3" transform="translate(123,259)"/>
<path d="M0 0 C1.65 0 3.3 0 5 0 C5.33 0.99 5.66 1.98 6 3 C5.07543945 4.8059082 5.07543945 4.8059082 3.61328125 6.80078125 C3.08669922 7.53103516 2.56011719 8.26128906 2.01757812 9.01367188 C1.17356445 10.1515918 1.17356445 10.1515918 0.3125 11.3125 C-0.77535833 12.8081439 -1.86260935 14.30422973 -2.94921875 15.80078125 C-3.47435059 16.51314941 -3.99948242 17.22551758 -4.54052734 17.95947266 C-5.84440343 19.78245632 -7.03160373 21.636189 -8.20703125 23.54296875 C-8.79871094 24.35378906 -9.39039063 25.16460937 -10 26 C-10.99 26 -11.98 26 -13 26 C-11.61099253 22.05975431 -9.76124508 19.07885976 -7.25 15.75 C-3.66797753 10.93257197 -0.27773314 6.02834061 3 1 C2.01 0.67 1.02 0.34 0 0 Z " fill="#C2C2C3" transform="translate(229,105)"/>
<path d="M0 0 C0.66 0 1.32 0 2 0 C2 2.31 2 4.62 2 7 C4.64 7.33 7.28 7.66 10 8 C10 9.65 10 11.3 10 13 C5.6822542 12.49202991 1.96697886 11.80317221 -2 10 C-2.25 3.375 -2.25 3.375 0 0 Z " fill="#34A6D1" transform="translate(172,394)"/>
<path d="M0 0 C3 1 3 1 4.6875 4.0625 C6.30863157 8.13221572 6.22844155 11.65961049 6 16 C5.71125 15.360625 5.4225 14.72125 5.125 14.0625 C4.17176549 11.84793921 4.17176549 11.84793921 2 11 C2 12.98 2 14.96 2 17 C1.67 17 1.34 17 1 17 C0.81824219 16.15695312 0.63648438 15.31390625 0.44921875 14.4453125 C0.19785156 13.34960938 -0.05351562 12.25390625 -0.3125 11.125 C-0.55613281 10.03445313 -0.79976562 8.94390625 -1.05078125 7.8203125 C-1.77902058 4.70557647 -1.77902058 4.70557647 -5 3 C-3.35 2.67 -1.7 2.34 0 2 C0 1.34 0 0.68 0 0 Z " fill="#2B9EBF" transform="translate(256,390)"/>
<path d="M0 0 C0.33 0.99 0.66 1.98 1 3 C1.66 3 2.32 3 3 3 C3 3.66 3 4.32 3 5 C3.5775 5.103125 4.155 5.20625 4.75 5.3125 C7.32049158 6.09792798 8.93657284 7.30504197 11 9 C10.67 10.32 10.34 11.64 10 13 C4.64847115 12.67566492 1.71719957 9.50295176 -2 6 C-1.125 1.125 -1.125 1.125 0 0 Z " fill="#4081C7" transform="translate(92,374)"/>
<path d="M0 0 C-0.66 0 -1.32 0 -2 0 C-2 0.66 -2 1.32 -2 2 C-3.7902061 2.67057887 -5.58221489 3.3363469 -7.375 4 C-8.37273437 4.37125 -9.37046875 4.7425 -10.3984375 5.125 C-13 6 -13 6 -15 6 C-15.33 6.99 -15.66 7.98 -16 9 C-16.66 9 -17.32 9 -18 9 C-18.33 9.66 -18.66 10.32 -19 11 C-18.67 9.35 -18.34 7.7 -18 6 C-18.99 6 -19.98 6 -21 6 C-21.33 4.02 -21.66 2.04 -22 0 C-20 2 -20 2 -20 5 C-18.33710938 4.33291016 -18.33710938 4.33291016 -16.640625 3.65234375 C-15.17730969 3.08014994 -13.71375535 2.50856718 -12.25 1.9375 C-11.15558594 1.49567383 -11.15558594 1.49567383 -10.0390625 1.04492188 C-8.97558594 0.6340332 -8.97558594 0.6340332 -7.890625 0.21484375 C-7.24125977 -0.04176025 -6.59189453 -0.29836426 -5.92285156 -0.56274414 C-3.63367214 -1.08330284 -2.20743336 -0.72364304 0 0 Z " fill="#482922" transform="translate(402,155)"/>
<path d="M0 0 C1.1700097 3.91736581 0.69584017 6.97959015 0 11 C1.65 11.33 3.3 11.66 5 12 C4.01 12.33 3.02 12.66 2 13 C2 15.64 2 18.28 2 21 C1.67 21 1.34 21 1 21 C1 18.36 1 15.72 1 13 C0.34 13 -0.32 13 -1 13 C-1 13.99 -1 14.98 -1 16 C-1.66 16 -2.32 16 -3 16 C-2.979375 16.94875 -2.95875 17.8975 -2.9375 18.875 C-3 22 -3 22 -4 24 C0.455 24.99 0.455 24.99 5 26 C5 26.33 5 26.66 5 27 C-2.75 26.125 -2.75 26.125 -5 25 C-4.64234286 16.23739998 -2.61954449 8.34599058 0 0 Z " fill="#266891" transform="translate(170,393)"/>
<path d="M0 0 C0.33 0 0.66 0 1 0 C1.33 1.65 1.66 3.3 2 5 C2.99 5 3.98 5 5 5 C5.6875 7.25 5.6875 7.25 6 10 C4.5625 12.3125 4.5625 12.3125 3 14 C1.68 13.67 0.36 13.34 -1 13 C-2.51403812 8.15507803 -1.36602172 4.7408989 0 0 Z " fill="#4299DA" transform="translate(132,392)"/>
<path d="M0 0 C2.875 -0.125 2.875 -0.125 6 0 C8 2 8 2 8.25 4.5 C8 7 8 7 6 9 C4.68 9 3.36 9 2 9 C0.1875 6.75 0.1875 6.75 -1 4 C-0.6875 1.6875 -0.6875 1.6875 0 0 Z " fill="#0B1C36" transform="translate(287,382)"/>
<path d="M0 0 C1 2 1 2 -0.14453125 5.44140625 C-0.692384 6.81836948 -1.24876059 8.19196424 -1.8125 9.5625 C-2.08642578 10.26052734 -2.36035156 10.95855469 -2.64257812 11.67773438 C-4.74332257 16.87166128 -4.74332257 16.87166128 -7 18 C-7.22557036 12.58631124 -6.8012673 8.14647801 -5 3 C-2.375 1 -2.375 1 0 0 Z " fill="#38271E" transform="translate(274,18)"/>
<path d="M0 0 C-4.95 2.475 -4.95 2.475 -10 5 C-7.03 5.495 -7.03 5.495 -4 6 C-4 6.33 -4 6.66 -4 7 C-9.61 7.66 -15.22 8.32 -21 9 C-17.92378382 5.92378382 -14.8884513 4.16889818 -11.0625 2.25 C-10.44181641 1.92128906 -9.82113281 1.59257812 -9.18164062 1.25390625 C-5.37331828 -0.66850567 -4.30426174 -1.07606544 0 0 Z " fill="#4F3720" transform="translate(416,156)"/>
<path d="M0 0 C7.59 0.33 15.18 0.66 23 1 C23 1.99 23 2.98 23 4 C20.10388456 3.85865273 17.2081919 3.7120847 14.3125 3.5625 C13.49587891 3.52318359 12.67925781 3.48386719 11.83789062 3.44335938 C7.80344189 3.23101997 3.94252691 2.95552078 0 2 C0 1.34 0 0.68 0 0 Z " fill="#663E24" transform="translate(11,201)"/>
<path d="M0 0 C2 3 2 3 2 6 C3.093125 5.67 4.18625 5.34 5.3125 5 C10.52890432 3.67014468 15.65248469 3.82306016 21 4 C18.21769572 5.85486952 16.15636393 6.72462112 13 7.6875 C11.700625 8.09548828 11.700625 8.09548828 10.375 8.51171875 C6.58808607 9.29027836 3.49186045 7.4156191 0 6 C0 4.02 0 2.04 0 0 Z " fill="#5D3823" transform="translate(384,166)"/>
<path d="M0 0 C2.6875 0.3125 2.6875 0.3125 5 1 C5.33 2.65 5.66 4.3 6 6 C5.34 6 4.68 6 4 6 C4 6.66 4 7.32 4 8 C1.625 7.75 1.625 7.75 -1 7 C-2.3125 4.9375 -2.3125 4.9375 -3 3 C-1.8125 1.4375 -1.8125 1.4375 0 0 Z " fill="#0B1F39" transform="translate(350,335)"/>
<path d="M0 0 C0.33 0 0.66 0 1 0 C1.53010201 2.60259124 2.04937795 5.206557 2.5625 7.8125 C2.71396484 8.55048828 2.86542969 9.28847656 3.02148438 10.04882812 C4.11328125 15.66015625 4.11328125 15.66015625 3 19 C2.34 18.67 1.68 18.34 1 18 C0.34 18.99 -0.32 19.98 -1 21 C-3.42857143 14.71428571 -3.42857143 14.71428571 -2 11 C-1.01 11.99 -0.02 12.98 1 14 C0.835 13.360625 0.67 12.72125 0.5 12.0625 C-0.15932515 8.02413348 -0.08003779 4.08192742 0 0 Z " fill="#2B79A5" transform="translate(248,395)"/>
<path d="M0 0 C0 0.66 0 1.32 0 2 C-3.76972318 2.83840998 -7.5409489 3.6698549 -11.3125 4.5 C-12.9202832 4.85771484 -12.9202832 4.85771484 -14.56054688 5.22265625 C-16.10258789 5.56103516 -16.10258789 5.56103516 -17.67578125 5.90625 C-18.62364502 6.11572266 -19.57150879 6.32519531 -20.5480957 6.54101562 C-23 7 -23 7 -26 7 C-26 6.34 -26 5.68 -26 5 C-6.6 0 -6.6 0 0 0 Z " fill="#ACACAD" transform="translate(124,262)"/>
<path d="M0 0 C0.763125 0.639375 1.52625 1.27875 2.3125 1.9375 C4.88246713 4.14232781 4.88246713 4.14232781 8 5 C7.67 5.99 7.34 6.98 7 8 C4.3125 8.875 4.3125 8.875 1 9 C-1.13500912 7.20703368 -2.38906909 5.32163572 -4 3 C-3.01 2.67 -2.02 2.34 -1 2 C-0.67 1.34 -0.34 0.68 0 0 Z " fill="#28AAC4" transform="translate(346,338)"/>
<path d="M0 0 C0.66 0 1.32 0 2 0 C3.79967022 2.20312274 5.40981752 4.51277536 7.05078125 6.8359375 C9.24344385 9.27027633 10.9171604 10.00423778 14 11 C14.66 11.33 15.32 11.66 16 12 C15 13 15 13 11.9375 13.0625 C10.968125 13.041875 9.99875 13.02125 9 13 C8.67 13.99 8.34 14.98 8 16 C7.03810003 14.27281484 6.08063492 12.54315942 5.125 10.8125 C4.59132813 9.84957031 4.05765625 8.88664062 3.5078125 7.89453125 C2.1576322 5.30260482 1.02901671 2.73238902 0 0 Z " fill="#5E3824" transform="translate(123,51)"/>
<path d="M0 0 C-1.66135251 4.26173035 -4.74435318 7.03991533 -7.9375 10.1875 C-8.47568359 10.73341797 -9.01386719 11.27933594 -9.56835938 11.84179688 C-12.01160618 14.27299314 -13.68733927 15.89577976 -17 17 C-15.68692628 14.10147635 -14.27315362 12.01722783 -12.03125 9.765625 C-11.17466797 8.90517578 -11.17466797 8.90517578 -10.30078125 8.02734375 C-9.70652344 7.44082031 -9.11226563 6.85429687 -8.5 6.25 C-7.90574219 5.64800781 -7.31148437 5.04601562 -6.69921875 4.42578125 C-6.12816406 3.85730469 -5.55710937 3.28882812 -4.96875 2.703125 C-4.44732422 2.18395508 -3.92589844 1.66478516 -3.38867188 1.12988281 C-2 0 -2 0 0 0 Z " fill="#BB8B27" transform="translate(125,123)"/>
<path d="M0 0 C3.465 1.98 3.465 1.98 7 4 C6.67 5.65 6.34 7.3 6 9 C2.20411134 8.45773019 0.52788007 6.79872437 -2 4 C-1.34 2.68 -0.68 1.36 0 0 Z " fill="#3576B0" transform="translate(359,350)"/>
<path d="M0 0 C1.66832577 2.50248865 2.62381674 4.41149187 3.625 7.1875 C3.88539063 7.90292969 4.14578125 8.61835938 4.4140625 9.35546875 C4.60742188 9.89816406 4.80078125 10.44085938 5 11 C3.35 11.66 1.7 12.32 0 13 C-1.76462683 9.91190305 -2 8.76687864 -2 5 C-1.34 5 -0.68 5 0 5 C0 3.35 0 1.7 0 0 Z " fill="#3D84C5" transform="translate(291,396)"/>
<path d="M0 0 C3.00148314 1.31686259 4.78331054 2.60895739 6.796875 5.1875 C7.52197266 6.11175781 7.52197266 6.11175781 8.26171875 7.0546875 C8.75285156 7.69664063 9.24398437 8.33859375 9.75 9 C10.25660156 9.64195313 10.76320313 10.28390625 11.28515625 10.9453125 C15 15.73155323 15 15.73155323 15 18 C10.9766562 16.6588854 9.38127545 13.96365312 6.9375 10.6875 C6.49083984 10.10548828 6.04417969 9.52347656 5.58398438 8.92382812 C3.41903685 6.06635627 1.43918646 3.29305377 0 0 Z " fill="#5E3D22" transform="translate(89,59)"/>
<path d="M0 0 C7.43335872 -0.36557502 7.43335872 -0.36557502 9.9375 1.25 C11 3 11 3 11.4375 5.0625 C11.82450832 7.21173571 11.82450832 7.21173571 14.0625 8.25 C14.701875 8.4975 15.34125 8.745 16 9 C14.6078125 8.9690625 14.6078125 8.9690625 13.1875 8.9375 C9.97713989 8.84230396 9.97713989 8.84230396 7 10 C6.34 8.35 5.68 6.7 5 5 C5.66 5 6.32 5 7 5 C7 4.01 7 3.02 7 2 C4.69 1.67 2.38 1.34 0 1 C0 0.67 0 0.34 0 0 Z " fill="#258CA9" transform="translate(349,330)"/>
<path d="M0 0 C2.97 1.98 2.97 1.98 6 4 C5.67 5.65 5.34 7.3 5 9 C2.50638429 7.79618552 0.31856917 6.54571278 -2 5 C-1.34 3.35 -0.68 1.7 0 0 Z " fill="#3E85C7" transform="translate(367,341)"/>
<path d="M0 0 C0.66 0 1.32 0 2 0 C2.49230769 6.4 2.49230769 6.4 0 9.4375 C-0.99 10.2109375 -0.99 10.2109375 -2 11 C-3.32 10.34 -4.64 9.68 -6 9 C-4.73046875 7.53515625 -3.4609375 6.0703125 -2.19140625 4.60546875 C-0.79128769 2.89287029 -0.79128769 2.89287029 0 0 Z " fill="#2BB9D1" transform="translate(85,337)"/>
<path d="M0 0 C2.64 0 5.28 0 8 0 C8 0.99 8 1.98 8 3 C5.36 3 2.72 3 0 3 C0 4.98 0 6.96 0 9 C3.63 9 7.26 9 11 9 C11 9.33 11 9.66 11 10 C7.04 10 3.08 10 -1 10 C-1.125 2.25 -1.125 2.25 0 0 Z " fill="#A15B2B" transform="translate(393,234)"/>
<path d="M0 0 C0.99 0.33 1.98 0.66 3 1 C4.61729417 4.67566856 4.06546005 9.07239675 4 13 C3.34 13 2.68 13 2 13 C-0.24828052 8.50343896 -0.16682272 4.92127034 0 0 Z " fill="#3DA6DD" transform="translate(258,401)"/>
<path d="M0 0 C0 3.3 0 6.6 0 10 C-1.65 10.33 -3.3 10.66 -5 11 C-4.67 10.34 -4.34 9.68 -4 9 C-3.34 9 -2.68 9 -2 9 C-2.33 7.02 -2.66 5.04 -3 3 C-4.65 3.33 -6.3 3.66 -8 4 C-5.29881977 1.17603885 -4.05589853 0 0 0 Z " fill="#904F2A" transform="translate(40,222)"/>
<path d="M0 0 C0.33 1.32 0.66 2.64 1 4 C0.01 4.33 -0.98 4.66 -2 5 C-2 5.99 -2 6.98 -2 8 C-2.66 8 -3.32 8 -4 8 C-4.66 9.32 -5.32 10.64 -6 12 C-6.66 12 -7.32 12 -8 12 C-7.34 8.7 -6.68 5.4 -6 2 C-5.34 3.32 -4.68 4.64 -4 6 C-2.68 4.02 -1.36 2.04 0 0 Z " fill="#267A9F" transform="translate(143,385)"/>
<path d="M0 0 C0.33 0.66 0.66 1.32 1 2 C-0.16134134 5.00013179 -1.76041654 6.76041654 -4 9 C-4.268125 9.639375 -4.53625 10.27875 -4.8125 10.9375 C-6.54330146 13.94362886 -9.08380021 15.22492187 -12 17 C-10.32844203 13.22757683 -7.92645254 10.07212347 -5.4375 6.8125 C-5.02564453 6.26658203 -4.61378906 5.72066406 -4.18945312 5.15820312 C-1.16952328 1.16952328 -1.16952328 1.16952328 0 0 Z " fill="#2580A2" transform="translate(105,357)"/>
<path d="M0 0 C0.66 0 1.32 0 2 0 C4.28571429 8.42857143 4.28571429 8.42857143 4 13 C3.01 12.67 2.02 12.34 1 12 C-0.26237731 9.47524538 -0.09856404 7.68799534 -0.0625 4.875 C-0.05347656 3.96492188 -0.04445312 3.05484375 -0.03515625 2.1171875 C-0.02355469 1.41851562 -0.01195312 0.71984375 0 0 Z " fill="#33B8DC" transform="translate(245,396)"/>
<path d="M0 0 C-0.33 0.66 -0.66 1.32 -1 2 C-1.8971875 2.1546875 -1.8971875 2.1546875 -2.8125 2.3125 C-5.96707605 3.30393819 -7.11673632 5.37688273 -9 8 C-9 7.34 -9 6.68 -9 6 C-9.66 6 -10.32 6 -11 6 C-10.6130131 3.75547595 -10.08035336 2.12945819 -8.875 0.1875 C-5.88367023 -1.70700885 -3.32900597 -0.69092577 0 0 Z " fill="#3E99D6" transform="translate(104,371)"/>
<path d="M0 0 C0.66 0.33 1.32 0.66 2 1 C1.49855469 1.48984375 0.99710937 1.9796875 0.48046875 2.484375 C-1.62530983 6.06253175 -1.08452743 9.27269865 -0.6875 13.25 C-0.62626953 13.99507813 -0.56503906 14.74015625 -0.50195312 15.5078125 C-0.3492857 17.33982155 -0.17660246 19.17014316 0 21 C-0.66 20.67 -1.32 20.34 -2 20 C-2.30251688 18.11767274 -2.5877786 16.23019959 -2.765625 14.33203125 C-2.97410505 11.97654462 -2.97410505 11.97654462 -3.421875 9.57421875 C-3.78924637 7.32957968 -4.09242463 5.27364595 -4 3 C-2.0625 0.9375 -2.0625 0.9375 0 0 Z " fill="#52332D" transform="translate(292,327)"/>
<path d="M0 0 C1.2380014 3.57644848 0.74926071 6.33694766 0 10 C1.65 10 3.3 10 5 10 C5.33 9.01 5.66 8.02 6 7 C6.5625 8.9375 6.5625 8.9375 7 11 C6 12 6 12 4.15234375 12.09765625 C2.1015625 12.06510417 0.05078125 12.03255208 -2 12 C-1.85831863 10.56208484 -1.71148957 9.1246763 -1.5625 7.6875 C-1.48128906 6.88699219 -1.40007812 6.08648437 -1.31640625 5.26171875 C-1 3 -1 3 0 0 Z " fill="#AC5F2D" transform="translate(227,33)"/>
<path d="M0 0 C3 1 3 1 5 4 C5 5.32 5 6.64 5 8 C4.34 8 3.68 8 3 8 C3 6.68 3 5.36 3 4 C2.01 4.495 2.01 4.495 1 5 C1 7.31 1 9.62 1 12 C-1 10 -1 10 -1.4375 7.5 C-1.7765556 4.65063471 -1.7765556 4.65063471 -5 3 C-3.35 2.67 -1.7 2.34 0 2 C0 1.34 0 0.68 0 0 Z " fill="#1E8CA2" transform="translate(256,390)"/>
<path d="M0 0 C0.66 0.33 1.32 0.66 2 1 C2 4.15987325 1.61785127 5.36034793 0 8 C-0.99 8.66 -1.98 9.32 -3 10 C-3.33 9.01 -3.66 8.02 -4 7 C-4.66 6.67 -5.32 6.34 -6 6 C-4.02 4.02 -2.04 2.04 0 0 Z " fill="#3096C0" transform="translate(79,343)"/>
<path d="M0 0 C2.09721098 3.14581646 3.05667086 5.8408918 4.1875 9.4375 C4.55230469 10.57058594 4.91710937 11.70367187 5.29296875 12.87109375 C5.96248932 15.8339997 6.07236414 17.22004965 5 20 C2.03988534 13.40701735 -0.35935412 7.36675947 0 0 Z " fill="#B85E2F" transform="translate(347,181)"/>
<path d="M0 0 C3.42931954 3.7559214 4.56429083 8.23466745 6 13 C1.71675909 10.48592381 -0.64531705 8.87685861 -2 4 C-1.34 4 -0.68 4 0 4 C0 2.68 0 1.36 0 0 Z " fill="#4A3520" transform="translate(119,32)"/>
<path d="M0 0 C1.62490954 -0.02698189 3.24994633 -0.04638757 4.875 -0.0625 C5.77992188 -0.07410156 6.68484375 -0.08570313 7.6171875 -0.09765625 C10 0 10 0 12 1 C12 1.66 12 2.32 12 3 C8.04 3 4.08 3 0 3 C0 2.01 0 1.02 0 0 Z " fill="#6E4A23" transform="translate(408,235)"/>
<path d="M0 0 C0.33 0 0.66 0 1 0 C1.125 7.625 1.125 7.625 0 11 C0.66 11 1.32 11 2 11 C0.25 15.875 0.25 15.875 -2 17 C-2.25287193 10.93107371 -1.69832609 5.83799592 0 0 Z " fill="#113C56" transform="translate(140,375)"/>
<path d="M0 0 C1.65 0.33 3.3 0.66 5 1 C5 1.99 5 2.98 5 4 C4.34 4 3.68 4 3 4 C2.814375 5.2065625 2.814375 5.2065625 2.625 6.4375 C2.41875 7.283125 2.2125 8.12875 2 9 C1.01 9.495 1.01 9.495 0 10 C0.33 8.35 0.66 6.7 1 5 C-0.32 5.33 -1.64 5.66 -3 6 C-2 4 -1 2 0 0 Z " fill="#1D91A3" transform="translate(147,379)"/>
<path d="M0 0 C0.66 0.33 1.32 0.66 2 1 C0.73046875 2.46484375 -0.5390625 3.9296875 -1.80859375 5.39453125 C-3.20871231 7.10712971 -3.20871231 7.10712971 -4 10 C-6.76264289 10.59732819 -9.16032769 11 -12 11 C-10.625 9.5 -10.625 9.5 -9 8 C-8.34 8 -7.68 8 -7 8 C-7 7.34 -7 6.68 -7 6 C-5.46875 4.4921875 -5.46875 4.4921875 -3.5 2.875 C-2.8503125 2.33617187 -2.200625 1.79734375 -1.53125 1.2421875 C-0.77328125 0.62730469 -0.77328125 0.62730469 0 0 Z " fill="#2C86AF" transform="translate(74,331)"/>
<path d="M0 0 C0 4.05164344 -1.61357669 5.79537442 -4 9 C-4.99 9.66 -5.98 10.32 -7 11 C-7.33 9.68 -7.66 8.36 -8 7 C-5.36 4.69 -2.72 2.38 0 0 Z " fill="#2CBED7" transform="translate(80,328)"/>
<path d="M0 0 C2.19578473 2.67312924 3.19649201 4.67118118 4 8 C4.66 8.33 5.32 8.66 6 9 C5.38125 9.12375 4.7625 9.2475 4.125 9.375 C1.80879168 9.87197356 1.80879168 9.87197356 0 12 C-0.66 10.02 -1.32 8.04 -2 6 C-1.34 6 -0.68 6 0 6 C0 4.02 0 2.04 0 0 Z " fill="#2897B6" transform="translate(285,383)"/>
<path d="M0 0 C3.3 0 6.6 0 10 0 C10.33 0.66 10.66 1.32 11 2 C9.02 2 7.04 2 5 2 C5 2.66 5 3.32 5 4 C3.35 4 1.7 4 0 4 C0 2.68 0 1.36 0 0 Z " fill="#8D5C27" transform="translate(403,202)"/>
<path d="M0 0 C6.875 1.875 6.875 1.875 8 3 C8.14115161 5.67058851 8.04247107 8.32432238 8 11 C7.67 11 7.34 11 7 11 C7 8.69 7 6.38 7 4 C4.03 4 1.06 4 -2 4 C-1.34 2.68 -0.68 1.36 0 0 Z " fill="#784327" transform="translate(33,233)"/>
<path d="M0 0 C0.66 0 1.32 0 2 0 C3.60725635 3.21451269 3.05748185 6.43612536 3 10 C1.68 9.34 0.36 8.68 -1 8 C-0.67 5.36 -0.34 2.72 0 0 Z " fill="#3BAADC" transform="translate(209,406)"/>
<path d="M0 0 C3.96 1.98 3.96 1.98 8 4 C6.68 5.65 5.36 7.3 4 9 C0 4.5 0 4.5 0 0 Z " fill="#2DB2D0" transform="translate(317,366)"/>
<path d="M0 0 C0.66 0.33 1.32 0.66 2 1 C1.41196203 4.02419525 0.77321882 7.01758453 0 10 C-0.66 10 -1.32 10 -2 10 C-2 9.34 -2 8.68 -2 8 C-2.66 8 -3.32 8 -4 8 C-3.625 6.0625 -3.625 6.0625 -3 4 C-2.34 3.67 -1.68 3.34 -1 3 C-0.67 2.01 -0.34 1.02 0 0 Z " fill="#2DBAD6" transform="translate(105,359)"/>
<path d="M0 0 C0.33 1.32 0.66 2.64 1 4 C-2.06117568 6.62386487 -2.73173127 7 -7 7 C-6.34 5.68 -5.68 4.36 -5 3 C-4.01 3 -3.02 3 -2 3 C-2 2.34 -2 1.68 -2 1 C-1.34 0.67 -0.68 0.34 0 0 Z " fill="#439DDF" transform="translate(75,349)"/>
<path d="M0 0 C-0.66 0 -1.32 0 -2 0 C-2 0.66 -2 1.32 -2 2 C-6.455 3.485 -6.455 3.485 -11 5 C-11.66 4.01 -12.32 3.02 -13 2 C-11.5882217 1.46605821 -10.17029756 0.94834896 -8.75 0.4375 C-7.96109375 0.14746094 -7.1721875 -0.14257812 -6.359375 -0.44140625 C-3.80896548 -1.04522837 -2.44677771 -0.8473932 0 0 Z " fill="#7F4F26" transform="translate(402,155)"/>
<path d="M0 0 C1.31225809 3.93677426 0.3393954 5.7794262 -0.9375 9.6875 C-1.50791016 11.45673828 -1.50791016 11.45673828 -2.08984375 13.26171875 C-2.39019531 14.16535156 -2.69054687 15.06898437 -3 16 C-3.33 16 -3.66 16 -4 16 C-3.67 13.03 -3.34 10.06 -3 7 C-3.99 7.495 -3.99 7.495 -5 8 C-3.62845496 5.04590299 -2.01136276 2.55991624 0 0 Z " fill="#824B28" transform="translate(323,62)"/>
<path d="M0 0 C0.99 0.33 1.98 0.66 3 1 C3 2.65 3 4.3 3 6 C3.66 6.33 4.32 6.66 5 7 C3.35 9.31 1.7 11.62 0 14 C-1.10242833 10.69271502 -0.8610103 9.70395783 0 6.4375 C1.02053325 3.13239978 1.02053325 3.13239978 0 0 Z " fill="#38281F" transform="translate(333,44)"/>
<path d="M0 0 C3.55778921 3.55778921 3.95168196 8.64709495 4.125 13.5 C4.08375 14.325 4.0425 15.15 4 16 C4.99 16.33 5.98 16.66 7 17 C5.68 17 4.36 17 3 17 C0.74566386 11.43930418 0.40038172 5.9214349 0 0 Z " fill="#BA6C2D" transform="translate(149,38)"/>
<path d="M0 0 C0.99 0 1.98 0 3 0 C2.125 7.75 2.125 7.75 1 10 C0.34 10 -0.32 10 -1 10 C-0.67 6.7 -0.34 3.4 0 0 Z " fill="#29C4D7" transform="translate(137,375)"/>
<path d="M0 0 C0.66 0 1.32 0 2 0 C4 3 4 3 3.625 5.6875 C3.41875 6.450625 3.2125 7.21375 3 8 C1.68 7.34 0.36 6.68 -1 6 C-1 3 -1 3 0 0 Z " fill="#3799CC" transform="translate(355,346)"/>
<path d="M0 0 C1.98 0 3.96 0 6 0 C5.67 4.95 5.34 9.9 5 15 C4.67 15 4.34 15 4 15 C4 10.71 4 6.42 4 2 C2.68 1.34 1.36 0.68 0 0 Z " fill="#9A7325" transform="translate(422,228)"/>
<path d="M0 0 C2.97 0.495 2.97 0.495 6 1 C6 3.64 6 6.28 6 9 C3.03 8.67 0.06 8.34 -3 8 C-3 7.67 -3 7.34 -3 7 C-0.69 7 1.62 7 4 7 C4.33 5.35 4.66 3.7 5 2 C3.35 1.67 1.7 1.34 0 1 C0 0.67 0 0.34 0 0 Z " fill="#AD5F2D" transform="translate(39,173)"/>
<path d="M0 0 C0.33 0 0.66 0 1 0 C1 3.63 1 7.26 1 11 C0.01 11 -0.98 11 -2 11 C-1.85957123 9.35369672 -1.71250671 7.70795821 -1.5625 6.0625 C-1.48128906 5.14597656 -1.40007812 4.22945312 -1.31640625 3.28515625 C-1 1 -1 1 0 0 Z " fill="#865626" transform="translate(238,23)"/>
<path d="M0 0 C0.99 0 1.98 0 3 0 C3 2.64 3 5.28 3 8 C2.01 8.33 1.02 8.66 0 9 C0 6.03 0 3.06 0 0 Z " fill="#28C8DA" transform="translate(209,394)"/>
<path d="M0 0 C3.1875 -0.25 3.1875 -0.25 6 0 C6.33 0.99 6.66 1.98 7 3 C3.7 3.33 0.4 3.66 -3 4 C-2.01 2.68 -1.02 1.36 0 0 Z " fill="#25CEDA" transform="translate(250,390)"/>
<path d="M0 0 C1.98 0.99 1.98 0.99 4 2 C4 4.64 4 7.28 4 10 C3.01 9.67 2.02 9.34 1 9 C0.67 6.03 0.34 3.06 0 0 Z " fill="#33BADD" transform="translate(294,381)"/>
<path d="M0 0 C0.99 0.33 1.98 0.66 3 1 C2.8125 2.8125 2.8125 2.8125 2 5 C-0.5625 6.75 -0.5625 6.75 -3 8 C-3 4.42424104 -1.91159393 2.94704065 0 0 Z " fill="#23BBC9" transform="translate(323,355)"/>
<path d="M0 0 C3.31012244 3.31012244 3.50351065 4.53159589 4 9 C2.68 9 1.36 9 0 9 C0 6.03 0 3.06 0 0 Z " fill="#845526" transform="translate(156,33)"/>
<path d="M0 0 C2.475 0.99 2.475 0.99 5 2 C5 3.32 5 4.64 5 6 C3.68 5.67 2.36 5.34 1 5 C0.67 3.35 0.34 1.7 0 0 Z " fill="#468ED8" transform="translate(130,400)"/>
<path d="M0 0 C1.32 0.33 2.64 0.66 4 1 C3.45730469 1.47050781 2.91460937 1.94101563 2.35546875 2.42578125 C1.28232422 3.35970703 1.28232422 3.35970703 0.1875 4.3125 C-0.52019531 4.92738281 -1.22789062 5.54226562 -1.95703125 6.17578125 C-3.70136739 7.73334335 -5.36778041 9.32658875 -7 11 C-7.66 10.67 -8.32 10.34 -9 10 C-8.27683594 9.29423828 -8.27683594 9.29423828 -7.5390625 8.57421875 C-6.90742188 7.95160156 -6.27578125 7.32898438 -5.625 6.6875 C-4.68527344 5.76517578 -4.68527344 5.76517578 -3.7265625 4.82421875 C-1.81913393 2.91187472 -1.81913393 2.91187472 0 0 Z " fill="#CA722F" transform="translate(277,105)"/>
<path d="M0 0 C0.99 0 1.98 0 3 0 C2.43628586 3.26954202 1.50037734 4.82575883 -1 7 C-1 6.34 -1 5.68 -1 5 C-2.98 5 -4.96 5 -7 5 C-6.67 4.34 -6.34 3.68 -6 3 C-4.33333333 2.66666667 -2.66666667 2.33333333 -1 2 C-0.67 1.34 -0.34 0.68 0 0 Z " fill="#522F23" transform="translate(356,102)"/>
<path d="M0 0 C3.3 0.33 6.6 0.66 10 1 C10 1.66 10 2.32 10 3 C9.34 3 8.68 3 8 3 C7.67 3.99 7.34 4.98 7 6 C6.67 5.34 6.34 4.68 6 4 C4.02477154 2.95191959 2.02518491 1.9479589 0 1 C0 0.67 0 0.34 0 0 Z " fill="#5A3224" transform="translate(45,149)"/>
<path d="M0 0 C1.625 1.5625 1.625 1.5625 3 4 C2.3125 7.6875 2.3125 7.6875 1 11 C0.01 11.495 0.01 11.495 -1 12 C-1.08159574 7.83861737 -0.98248524 4.0527516 0 0 Z " fill="#734D24" transform="translate(268,24)"/>
<path d="M0 0 C0.66 0.33 1.32 0.66 2 1 C1.07038578 2.15224028 0.1309875 3.29659176 -0.8125 4.4375 C-1.59560547 5.39462891 -1.59560547 5.39462891 -2.39453125 6.37109375 C-4 8 -4 8 -7 9 C-5.44499019 5.18315774 -2.96404505 2.80804268 0 0 Z " fill="#432522" transform="translate(295,232)"/>
<path d="M0 0 C0.33 0 0.66 0 1 0 C1 2.97 1 5.94 1 9 C1.99 8.67 2.98 8.34 4 8 C2.92598892 10.91517292 2.22189824 12.77810176 0 15 C0 10.05 0 5.1 0 0 Z " fill="#33241E" transform="translate(212,196)"/>
<path d="M0 0 C2.2432954 2.88423694 4.36318083 5.72636167 6 9 C5.578125 11.15625 5.578125 11.15625 5 13 C4.15930585 11.39967863 3.32768495 9.79458829 2.5 8.1875 C1.80390625 6.84751953 1.80390625 6.84751953 1.09375 5.48046875 C0 3 0 3 0 0 Z " fill="#B65E2F" transform="translate(341,168)"/>
<path d="M0 0 C0.66 0.33 1.32 0.66 2 1 C1.67 1.33 1.34 1.66 1 2 C2.65 2.33 4.3 2.66 6 3 C6 3.33 6 3.66 6 4 C2.04 4 -1.92 4 -6 4 C-3 1 -3 1 0 0 Z " fill="#F6B22C" transform="translate(217,162)"/>
<path d="M0 0 C0.66 0 1.32 0 2 0 C1.7452486 1.31571603 1.47065859 2.62760376 1.1875 3.9375 C1.03667969 4.66839844 0.88585937 5.39929687 0.73046875 6.15234375 C0.48941406 6.76207031 0.24835938 7.37179688 0 8 C-0.99 8.33 -1.98 8.66 -3 9 C-2.44271087 5.65626525 -1.64826111 2.96687001 0 0 Z " fill="#7C4F26" transform="translate(297,41)"/>
<path d="M0 0 C0.66 0 1.32 0 2 0 C2 2.31 2 4.62 2 7 C1.01 7 0.02 7 -1 7 C-1.625 5.1875 -1.625 5.1875 -2 3 C-1.34 2.01 -0.68 1.02 0 0 Z " fill="#2FBAD8" transform="translate(172,394)"/>
<path d="M0 0 C0.99 0 1.98 0 3 0 C2.43628586 3.26954202 1.50037734 4.82575883 -1 7 C-1.625 4.625 -1.625 4.625 -2 2 C-1.34 1.34 -0.68 0.68 0 0 Z " fill="#2AC1D6" transform="translate(146,383)"/>
<path d="M0 0 C-1.49827011 3.81377846 -3.76487393 5.57365545 -7 8 C-7.66 8.66 -8.32 9.32 -9 10 C-8.42110619 6.71245489 -7.45171589 5.06327505 -5.0625 2.75 C-4.53785156 2.22921875 -4.01320313 1.7084375 -3.47265625 1.171875 C-2 0 -2 0 0 0 Z " fill="#1D8DA0" transform="translate(349,331)"/>
<path d="M0 0 C2.31 0 4.62 0 7 0 C7 0.66 7 1.32 7 2 C8.98 2 10.96 2 13 2 C13 2.33 13 2.66 13 3 C8.48382401 3.07654536 4.40914783 3.10228696 0 2 C0 1.34 0 0.68 0 0 Z " fill="#6B4B22" transform="translate(11,201)"/>
<path d="M0 0 C4.12751449 0.60698743 7.3321148 2.03810791 11 4 C7.59068103 5.13643966 6.99664544 4.86747764 3.8125 3.5625 C3.09707031 3.27503906 2.38164062 2.98757812 1.64453125 2.69140625 C1.10183594 2.46324219 0.55914063 2.23507813 0 2 C0 1.34 0 0.68 0 0 Z " fill="#593D21" transform="translate(27,141)"/>
<path d="M0 0 C-0.4640625 0.8353125 -0.4640625 0.8353125 -0.9375 1.6875 C-2.05761821 4.12540433 -2.56037364 6.36224186 -3 9 C-3.99 8.34 -4.98 7.68 -6 7 C-5.37162381 3.35541809 -4.14650034 0 0 0 Z " fill="#122446" transform="translate(71,342)"/>
<path d="M0 0 C0.33 1.32 0.66 2.64 1 4 C-1.4375 6.75 -1.4375 6.75 -4 9 C-4.66 8.67 -5.32 8.34 -6 8 C-4.02 5.36 -2.04 2.72 0 0 Z " fill="#97969A" transform="translate(293,286)"/>
<path d="M0 0 C0.66 0.33 1.32 0.66 2 1 C1.0409375 2.11375 1.0409375 2.11375 0.0625 3.25 C-1.78333407 5.7111121 -2.56069174 7.03466926 -3 10 C-3.66 9.34 -4.32 8.68 -5 8 C-4.74739753 4.21096292 -2.72150557 2.45813407 0 0 Z " fill="#BB672E" transform="translate(352,95)"/>
<path d="M0 0 C3 3 3 3 3.1875 6.6875 C3.125625 7.780625 3.06375 8.87375 3 10 C2.01 10.33 1.02 10.66 0 11 C0 7.37 0 3.74 0 0 Z " fill="#AC602D" transform="translate(109,69)"/>
<path d="M0 0 C0 0.66 0 1.32 0 2 C-0.99 2 -1.98 2 -3 2 C-3 2.66 -3 3.32 -3 4 C-5.92879371 3.37240135 -8.36095629 2.41377341 -11 1 C-7.26513121 0.4254048 -3.78706732 0 0 0 Z " fill="#C3822A" transform="translate(409,168)"/>
<path d="M0 0 C2.31 0.33 4.62 0.66 7 1 C7 1.33 7 1.66 7 2 C4 3 1 4 -2 5 C-1.34 3.35 -0.68 1.7 0 0 Z " fill="#B98C26" transform="translate(39,103)"/>
<path d="M0 0 C0 0.66 0 1.32 0 2 C-0.66 2 -1.32 2 -2 2 C-2.185625 3.2065625 -2.185625 3.2065625 -2.375 4.4375 C-2.58125 5.283125 -2.7875 6.12875 -3 7 C-3.99 7.495 -3.99 7.495 -5 8 C-4.34 6.02 -3.68 4.04 -3 2 C-4.32 1.67 -5.64 1.34 -7 1 C-4.53721199 -0.231394 -2.7204945 -0.07159196 0 0 Z " fill="#916326" transform="translate(193,91)"/>
<path d="M0 0 C2.5625 2.25 2.5625 2.25 5 5 C4.8125 7.3125 4.8125 7.3125 4 9 C0 2.25 0 2.25 0 0 Z " fill="#8F4A2A" transform="translate(339,264)"/>
<path d="M0 0 C2.97 0.495 2.97 0.495 6 1 C4.68 1.33 3.36 1.66 2 2 C2.33 3.98 2.66 5.96 3 8 C0.37613513 4.93882432 0 4.26826873 0 0 Z " fill="#392F33" transform="translate(122,252)"/>
<path d="M0 0 C0.94875 0.350625 1.8975 0.70125 2.875 1.0625 C2.875 1.3925 2.875 1.7225 2.875 2.0625 C-0.755 2.3925 -4.385 2.7225 -8.125 3.0625 C-3.89423077 -1.16826923 -3.89423077 -1.16826923 0 0 Z " fill="#794E25" transform="translate(403.125,161.9375)"/>
<path d="M0 0 C-0.28875 0.53625 -0.5775 1.0725 -0.875 1.625 C-2.16711808 4.35280484 -3.08558592 7.12612718 -4 10 C-4.33 10 -4.66 10 -5 10 C-5.29296875 3.9453125 -5.29296875 3.9453125 -5 2 C-2 0 -2 0 0 0 Z " fill="#BF6C2E" transform="translate(373,122)"/>
<path d="M0 0 C2.62386487 3.06117568 3 3.73173127 3 8 C2.01 7.67 1.02 7.34 0 7 C0 6.34 0 5.68 0 5 C-0.99 4.67 -1.98 4.34 -3 4 C-2.01 4 -1.02 4 0 4 C0 2.68 0 1.36 0 0 Z " fill="#483420" transform="translate(61,75)"/>
<path d="M0 0 C1.27351308 2.54702616 0.80191925 3.4282945 0.0625 6.125 C-0.13214844 6.84945312 -0.32679688 7.57390625 -0.52734375 8.3203125 C-0.68332031 8.87460938 -0.83929688 9.42890625 -1 10 C-1.33 10 -1.66 10 -2 10 C-2 8.35 -2 6.7 -2 5 C-2.66 5 -3.32 5 -4 5 C-3 2 -3 2 0 0 Z " fill="#3A2120" transform="translate(320,68)"/>
<path d="M0 0 C2.97 0.33 5.94 0.66 9 1 C8.67 1.66 8.34 2.32 8 3 C6.02 3 4.04 3 2 3 C1.67 3.99 1.34 4.98 1 6 C0.67 4.02 0.34 2.04 0 0 Z " fill="#412421" transform="translate(130,61)"/>
<path d="M0 0 C-0.1875 1.875 -0.1875 1.875 -1 4 C-3.5625 5.25 -3.5625 5.25 -6 6 C-6 5.34 -6 4.68 -6 4 C-5.34 4 -4.68 4 -4 4 C-4 3.01 -4 2.02 -4 1 C-2 0 -2 0 0 0 Z " fill="#35B1DA" transform="translate(145,389)"/>
<path d="M0 0 C0.33 0.99 0.66 1.98 1 3 C1.66 3 2.32 3 3 3 C2.67 3.99 2.34 4.98 2 6 C1.01 6 0.02 6 -1 6 C-1.33 6.99 -1.66 7.98 -2 9 C-1.51421457 5.87709365 -1.0013988 3.00419641 0 0 Z " fill="#31ACD1" transform="translate(135,382)"/>
<path d="M0 0 C1.32 0.33 2.64 0.66 4 1 C4 2.32 4 3.64 4 5 C2.68 4.67 1.36 4.34 0 4 C0 2.68 0 1.36 0 0 Z " fill="#4387CF" transform="translate(361,354)"/>
<path d="M0 0 C0.66 0 1.32 0 2 0 C1.67 2.64 1.34 5.28 1 8 C0.34 7.67 -0.32 7.34 -1 7 C-0.67 4.69 -0.34 2.38 0 0 Z " fill="#42A3E2" transform="translate(169,406)"/>
<path d="M0 0 C0.99 0 1.98 0 3 0 C3.33 1.32 3.66 2.64 4 4 C2.68 4 1.36 4 0 4 C0 2.68 0 1.36 0 0 Z " fill="#4395D9" transform="translate(327,379)"/>
<path d="M0 0 C2.96175123 0.61277612 4.38058783 1.25372522 7 3 C7 3.66 7 4.32 7 5 C2.25 3.125 2.25 3.125 0 2 C0 1.34 0 0.68 0 0 Z " fill="#6A4424" transform="translate(50,115)"/>
<path d="M0 0 C3.3 0 6.6 0 10 0 C10 0.66 10 1.32 10 2 C7.69 2 5.38 2 3 2 C2.67 2.66 2.34 3.32 2 4 C1.34 2.68 0.68 1.36 0 0 Z " fill="#402521" transform="translate(80,97)"/>
<path d="M0 0 C2.64 0.66 5.28 1.32 8 2 C7.34 3.32 6.68 4.64 6 6 C5.34 5.01 4.68 4.02 4 3 C1.94996045 1.80767387 1.94996045 1.80767387 0 1 C0 0.67 0 0.34 0 0 Z " fill="#CE7230" transform="translate(85,90)"/>
</svg>
